{"asset":{"version":"2.0","generator":"Blockbench 4.9.4 glTF exporter"},"scenes":[{"nodes":[36,40],"name":"blockbench_export"}],"scene":0,"nodes":[{"translation":[-0.029688427599437107,0.969612477135652,0.1683714396977242],"name":"lower_torso"},{"translation":[-0.029661925333180884,0.968746923446481,0.16822113787692675],"name":"upper_torso"},{"translation":[0.03826756998924033,0.18770307224141813,-0.18969239884185027],"name":"tip"},{"translation":[-0.053124755133046334,-0.35797687163980507,0.26283435027281077],"name":"foruth","children":[2]},{"name":"third","children":[3]},{"name":"second","children":[4]},{"name":"base","children":[5]},{"translation":[0.08530840001311409,1.195697022635418,-0.4188428017139749],"name":"hat","children":[6]},{"translation":[-0.0568372582554624,0.2847452293782804,-0.43867925984268397],"name":"Hair"},{"translation":[0.005389629941199431,-0.008107600841274376,0.23287997563277762],"name":"Beard"},{"translation":[-0.06426709263604463,1.439079085600699,0.36447679406648714],"name":"head","children":[7,8,9]},{"translation":[-0.03807679954130577,-0.06157988701999262,0.32473513996236025],"name":"left_hand"},{"translation":[-0.010264945669433034,-0.056802519463477585,0.2230375606217071],"name":"left_lower_arm","children":[11]},{"translation":[0.034480301653298406,-0.41053911290626277,0.4100247651935646],"name":"left_elbow","children":[12]},{"translation":[0.40610527735500435,2.315924910956433,0.48626697645845185],"name":"left_upper_arm","children":[13]},{"translation":[0.03957671760924761,-1.292560175828523,-0.2244507190574701],"name":"left_arm","children":[14]},{"translation":[-0.07352017103080155,-0.050047624964377535,0.09902148891861562],"name":"right_hand"},{"translation":[-0.03857073790705351,-0.2315036495788625,0.17675448988858944],"name":"right_lower_arm","children":[16]},{"translation":[-0.013315238528069762,-0.4656031409259911,0.0755144701881153],"name":"right_elbow","children":[17]},{"translation":[0.5729451001209379,1.892538415355194,0.43987921080896686],"name":"right_upper_arm","children":[18]},{"translation":[-1.0796396381321285,-0.9232572684489451,-0.35567614205920384],"name":"right_arm","children":[19]},{"translation":[0.03125,0.9273750000000001,-0.03125],"name":"torso","children":[0,1,10,15,20]},{"name":"left_foot"},{"translation":[-0.2190058792142593,-0.7807112074364774,0.02701037675906895],"name":"left_lower_leg","children":[22]},{"translation":[0.1914544353965842,0.7689611968179028,-0.1739166523233291],"name":"left_knee","children":[23]},{"translation":[-0.2179736780834997,-0.9786350661546681,0.21651677746703613],"name":"left_thigh","children":[24]},{"translation":[0.2522633023255914,0.9864357879491971,0.109375],"name":"left_robe","children":[25]},{"name":"left_leg","children":[26]},{"translation":[-0.19082789096387204,-0.4062240185433567,-0.10703918809841155],"name":"right_foot"},{"translation":[0.3864810354717852,-0.09374400427923613,0.2050360538596841],"name":"right_lower_leg","children":[28]},{"translation":[-0.08271040099544077,-0.1875,-0.04413674282469647],"name":"right_knee","children":[29]},{"translation":[0.11028053466058765,-0.421875,0.05884899043292863],"name":"right_thigh","children":[30]},{"translation":[-0.2856521739130435,1.5,-0.08934782608695652],"name":"right_robe","children":[31]},{"name":"right_leg","children":[32]},{"translation":[0,-0.378375,0],"name":"waist","children":[27,33]},{"name":"Trial","children":[21,34]},{"translation":[0,0.375,0],"name":"Trial","mesh":0,"children":[35],"skin":0},{"translation":[-0.01123046875,0.014501953124999245,0.001953125],"name":"Left"},{"translation":[0.020018749999999974,0.014501953124999245,0.001953125],"name":"Right"},{"name":"Spellbook","children":[37,38]},{"rotation":[-0.7071067811865475,0,0,0.7071067811865476],"translation":[-0.5625,1.0671072431115134,0.904372773080194],"name":"Spellbook","mesh":1,"children":[39],"skin":1}],"bufferViews":[{"buffer":0,"byteOffset":0,"byteLength":24192,"target":34962,"byteStride":12},{"buffer":0,"byteOffset":24192,"byteLength":24192,"target":34962,"byteStride":12},{"buffer":0,"byteOffset":48384,"byteLength":16128,"target":34962,"byteStride":8},{"buffer":0,"byteOffset":64512,"byteLength":16128,"target":34962,"byteStride":8},{"buffer":0,"byteOffset":80640,"byteLength":32256,"target":34962,"byteStride":16},{"buffer":0,"byteOffset":112896,"byteLength":6048,"target":34963},{"buffer":0,"byteOffset":118944,"byteLength":4896,"target":34962,"byteStride":12},{"buffer":0,"byteOffset":123840,"byteLength":4896,"target":34962,"byteStride":12},{"buffer":0,"byteOffset":128736,"byteLength":3264,"target":34962,"byteStride":8},{"buffer":0,"byteOffset":132000,"byteLength":3264,"target":34962,"byteStride":8},{"buffer":0,"byteOffset":135264,"byteLength":6528,"target":34962,"byteStride":16},{"buffer":0,"byteOffset":141792,"byteLength":1224,"target":34963},{"buffer":0,"byteOffset":143016,"byteLength":2304},{"buffer":0,"byteOffset":145320,"byteLength":192},{"buffer":0,"byteOffset":145512,"byteLength":8},{"buffer":0,"byteOffset":145520,"byteLength":32},{"buffer":0,"byteOffset":145552,"byteLength":12},{"buffer":0,"byteOffset":145564,"byteLength":36},{"buffer":0,"byteOffset":145600,"byteLength":12},{"buffer":0,"byteOffset":145612,"byteLength":48},{"buffer":0,"byteOffset":145660,"byteLength":12},{"buffer":0,"byteOffset":145672,"byteLength":36},{"buffer":0,"byteOffset":145708,"byteLength":16},{"buffer":0,"byteOffset":145724,"byteLength":64},{"buffer":0,"byteOffset":145788,"byteLength":8},{"buffer":0,"byteOffset":145796,"byteLength":24},{"buffer":0,"byteOffset":145820,"byteLength":12},{"buffer":0,"byteOffset":145832,"byteLength":48},{"buffer":0,"byteOffset":145880,"byteLength":12},{"buffer":0,"byteOffset":145892,"byteLength":36},{"buffer":0,"byteOffset":145928,"byteLength":12},{"buffer":0,"byteOffset":145940,"byteLength":48},{"buffer":0,"byteOffset":145988,"byteLength":12},{"buffer":0,"byteOffset":146000,"byteLength":48},{"buffer":0,"byteOffset":146048,"byteLength":12},{"buffer":0,"byteOffset":146060,"byteLength":36},{"buffer":0,"byteOffset":146096,"byteLength":12},{"buffer":0,"byteOffset":146108,"byteLength":36},{"buffer":0,"byteOffset":146144,"byteLength":12},{"buffer":0,"byteOffset":146156,"byteLength":48},{"buffer":0,"byteOffset":146204,"byteLength":12},{"buffer":0,"byteOffset":146216,"byteLength":36},{"buffer":0,"byteOffset":146252,"byteLength":16},{"buffer":0,"byteOffset":146268,"byteLength":48},{"buffer":0,"byteOffset":146316,"byteLength":16},{"buffer":0,"byteOffset":146332,"byteLength":64},{"buffer":0,"byteOffset":146396,"byteLength":12},{"buffer":0,"byteOffset":146408,"byteLength":36},{"buffer":0,"byteOffset":146444,"byteLength":12},{"buffer":0,"byteOffset":146456,"byteLength":48},{"buffer":0,"byteOffset":146504,"byteLength":8},{"buffer":0,"byteOffset":146512,"byteLength":32},{"buffer":0,"byteOffset":146544,"byteLength":8},{"buffer":0,"byteOffset":146552,"byteLength":32},{"buffer":0,"byteOffset":146584,"byteLength":8},{"buffer":0,"byteOffset":146592,"byteLength":24},{"buffer":0,"byteOffset":146616,"byteLength":12},{"buffer":0,"byteOffset":146628,"byteLength":48},{"buffer":0,"byteOffset":146676,"byteLength":8},{"buffer":0,"byteOffset":146684,"byteLength":24},{"buffer":0,"byteOffset":146708,"byteLength":12},{"buffer":0,"byteOffset":146720,"byteLength":36},{"buffer":0,"byteOffset":146756,"byteLength":8},{"buffer":0,"byteOffset":146764,"byteLength":32},{"buffer":0,"byteOffset":146796,"byteLength":8},{"buffer":0,"byteOffset":146804,"byteLength":24},{"buffer":0,"byteOffset":146828,"byteLength":12},{"buffer":0,"byteOffset":146840,"byteLength":48},{"buffer":0,"byteOffset":146888,"byteLength":12},{"buffer":0,"byteOffset":146900,"byteLength":48},{"buffer":0,"byteOffset":146948,"byteLength":12},{"buffer":0,"byteOffset":146960,"byteLength":48}],"buffers":[{"byteLength":147008,"uri":"data:application/octet-stream;base64,"}],"accessors":[{"bufferView":0,"componentType":5126,"count":2016,"max":[0.7297345995903015,3.5025970935821533,1.3803900480270386],"min":[-0.794730007648468,-0.398387610912323,-0.3969120979309082],"type":"VEC3"},{"bufferView":1,"componentType":5126,"count":2016,"max":[0.9975536465644836,0.999936044216156,0.9985624551773071],"min":[-0.9975536465644836,-1,-0.9985624551773071],"type":"VEC3"},{"bufferView":2,"componentType":5126,"count":2016,"max":[0.40625,0.92578125],"min":[0,0],"type":"VEC2"},{"bufferView":3,"componentType":5123,"count":2016,"max":[0,35,0,0],"min":[0,2,0,0],"type":"VEC4"},{"bufferView":4,"componentType":5126,"count":2016,"max":[0,1,0,0],"min":[0,1,0,0],"type":"VEC4"},{"bufferView":5,"componentType":5123,"count":3024,"max":[2015],"min":[0],"type":"SCALAR"},{"bufferView":6,"componentType":5126,"count":408,"max":[0.5939803123474121,0.375,0.2877536714076996],"min":[-0.5933113098144531,-0.3828125,-0.0625],"type":"VEC3"},{"bufferView":7,"componentType":5126,"count":408,"max":[1,1,1],"min":[-1,-1,-1],"type":"VEC3"},{"bufferView":8,"componentType":5126,"count":408,"max":[0.6328125,0.3046875],"min":[0.5,0],"type":"VEC2"},{"bufferView":9,"componentType":5123,"count":408,"max":[0,2,0,0],"min":[0,0,0,0],"type":"VEC4"},{"bufferView":10,"componentType":5126,"count":408,"max":[0,1,0,0],"min":[0,1,0,0],"type":"VEC4"},{"bufferView":11,"componentType":5123,"count":612,"max":[407],"min":[0],"type":"SCALAR"},{"bufferView":12,"componentType":5126,"count":36,"max":[1,0,0,0,0,1,0,0,0,0,1,0,1.0483896732330322,0.3823242783546448,0.38692614436149597,1],"min":[1,0,0,0,0,1,0,0,0,0,1,0,-0.5114123225212097,-3.5621511936187744,-1.1883636713027954,1],"type":"MAT4"},{"bufferView":13,"componentType":5126,"count":3,"max":[1,0,0,0,0,1,0,0,0,0,1,0,0.01123046875,0,0,1],"min":[1,0,0,0,0,1,0,0,0,0,1,0,-0.020018750801682472,-0.01450195349752903,-0.001953125,1],"type":"MAT4"},{"bufferView":14,"componentType":5126,"count":2,"max":[1.75],"min":[0],"type":"SCALAR"},{"bufferView":15,"componentType":5126,"count":2,"max":[0.08682408928871155,-0.08682408928871155,0.007596123497933149,0.9924038648605347],"min":[0.08682408928871155,-0.08682408928871155,0.007596123497933149,0.9924038648605347],"type":"VEC4"},{"bufferView":16,"componentType":5126,"count":3,"max":[1.75],"min":[0],"type":"SCALAR"},{"bufferView":17,"componentType":5126,"count":3,"max":[0.03125,0.9375,-0.03125],"min":[0.03125,0.890625,-0.03125],"type":"VEC3"},{"bufferView":18,"componentType":5126,"count":3,"max":[1.75],"min":[0],"type":"SCALAR"},{"bufferView":19,"componentType":5126,"count":3,"max":[-0.15212339162826538,0,0,0.9883615374565125],"min":[-0.1736481785774231,0,0,0.9848077297210693],"type":"VEC4"},{"bufferView":20,"componentType":5126,"count":3,"max":[1.75],"min":[0],"type":"SCALAR"},{"bufferView":21,"componentType":5126,"count":3,"max":[0.640625,1.9249999523162842,0],"min":[0.640625,1.9093749523162842,0],"type":"VEC3"},{"bufferView":22,"componentType":5126,"count":4,"max":[1.75],"min":[0],"type":"SCALAR"},{"bufferView":23,"componentType":5126,"count":4,"max":[-0.19765734672546387,0,0,0.9802711606025696],"min":[-0.237685889005661,0,0,0.9713420867919922],"type":"VEC4"},{"bufferView":24,"componentType":5126,"count":2,"max":[1.75],"min":[0],"type":"SCALAR"},{"bufferView":25,"componentType":5126,"count":2,"max":[0,-0.47187501192092896,2.220446049250313e-16],"min":[0,-0.47187501192092896,2.220446049250313e-16],"type":"VEC3"},{"bufferView":26,"componentType":5126,"count":3,"max":[1.75],"min":[0],"type":"SCALAR"},{"bufferView":27,"componentType":5126,"count":3,"max":[-0.08682408928871155,0.10845260322093964,0.007596123497933149,0.9924038648605347],"min":[-0.08696913719177246,0.08682408928871155,0.0057002585381269455,0.990273654460907],"type":"VEC4"},{"bufferView":28,"componentType":5126,"count":3,"max":[1.75],"min":[0],"type":"SCALAR"},{"bufferView":29,"componentType":5126,"count":3,"max":[0.25226330757141113,0.9942242503166199,0.109375],"min":[0.25226330757141113,0.9785992503166199,0.109375],"type":"VEC3"},{"bufferView":30,"componentType":5126,"count":3,"max":[1.75],"min":[0],"type":"SCALAR"},{"bufferView":31,"componentType":5126,"count":3,"max":[0.10886687785387039,0,0,0.9961947202682495],"min":[0.08715574443340302,0,0,0.9940563440322876],"type":"VEC4"},{"bufferView":32,"componentType":5126,"count":3,"max":[1.75],"min":[0],"type":"SCALAR"},{"bufferView":33,"componentType":5126,"count":3,"max":[0,-0.2164396196603775,0,0.9762960076332092],"min":[0,-0.30070579051971436,0,0.9537169337272644],"type":"VEC4"},{"bufferView":34,"componentType":5126,"count":3,"max":[1.75],"min":[0],"type":"SCALAR"},{"bufferView":35,"componentType":5126,"count":3,"max":[-0.28125,1.5,-0.078125],"min":[-0.296875,1.5,-0.09375],"type":"VEC3"},{"bufferView":36,"componentType":5126,"count":3,"max":[1.75],"min":[0],"type":"SCALAR"},{"bufferView":37,"componentType":5126,"count":3,"max":[-0.5625,1.1126697063446045,0.9043727517127991],"min":[-0.5625,0.9720447659492493,0.9043727517127991],"type":"VEC3"},{"bufferView":38,"componentType":5126,"count":3,"max":[1.75],"min":[0],"type":"SCALAR"},{"bufferView":39,"componentType":5126,"count":3,"max":[-0.06534087657928467,0,0.002852844540029764,0.9978589415550232],"min":[-0.06540312618017197,-0.04352599382400513,0,0.9969092011451721],"type":"VEC4"},{"bufferView":40,"componentType":5126,"count":3,"max":[1.75],"min":[0],"type":"SCALAR"},{"bufferView":41,"componentType":5126,"count":3,"max":[-1.0408340855860843e-17,1.4895833730697632,0.1145833358168602],"min":[-1.0408340855860843e-17,1.4583333730697632,0.1145833358168602],"type":"VEC3"},{"bufferView":42,"componentType":5126,"count":4,"max":[1.75],"min":[0],"type":"SCALAR"},{"bufferView":43,"componentType":5126,"count":4,"max":[1.0408340855860843e-17,1.187217354774475,-0.47906050086021423],"min":[1.0408340855860843e-17,1.140342354774475,-0.47906050086021423],"type":"VEC3"},{"bufferView":44,"componentType":5126,"count":4,"max":[1.75],"min":[0],"type":"SCALAR"},{"bufferView":45,"componentType":5126,"count":4,"max":[-0.3751446306705475,-0.0034877907019108534,0.10861188918352127,0.9205747246742249],"min":[-0.47313496470451355,-0.015291296876966953,0.10758662968873978,0.8742623329162598],"type":"VEC4"},{"bufferView":46,"componentType":5126,"count":3,"max":[1.75],"min":[0],"type":"SCALAR"},{"bufferView":47,"componentType":5126,"count":3,"max":[0.484375,2.362499952316284,2.7755575615628914e-17],"min":[0.484375,2.315624952316284,2.7755575615628914e-17],"type":"VEC3"},{"bufferView":48,"componentType":5126,"count":3,"max":[1.75],"min":[0],"type":"SCALAR"},{"bufferView":49,"componentType":5126,"count":3,"max":[-0.2798290252685547,0,0,0.9600498676300049],"min":[-0.3214394748210907,0,0,0.9469301104545593],"type":"VEC4"},{"bufferView":50,"componentType":5126,"count":2,"max":[1.75],"min":[0],"type":"SCALAR"},{"bufferView":51,"componentType":5126,"count":2,"max":[0,-0.3214394748210907,0,0.9469301104545593],"min":[0,-0.3214394748210907,0,0.9469301104545593],"type":"VEC4"},{"bufferView":52,"componentType":5126,"count":2,"max":[1.75],"min":[0],"type":"SCALAR"},{"bufferView":53,"componentType":5126,"count":2,"max":[-0.08715574443340302,0,0,0.9961947202682495],"min":[-0.08715574443340302,0,0,0.9961947202682495],"type":"VEC4"},{"bufferView":54,"componentType":5126,"count":2,"max":[1.75],"min":[0],"type":"SCALAR"},{"bufferView":55,"componentType":5126,"count":2,"max":[-0.0072916666977107525,-0.29343536496162415,0.012896059080958366],"min":[-0.0072916666977107525,-0.29343536496162415,0.012896059080958366],"type":"VEC3"},{"bufferView":56,"componentType":5126,"count":3,"max":[1.75],"min":[0],"type":"SCALAR"},{"bufferView":57,"componentType":5126,"count":3,"max":[-0.10756748169660568,0.6988770961761475,-0.0899520218372345,0.7970588207244873],"min":[-0.12267908453941345,0.5844277143478394,-0.10756747424602509,0.6988771557807922],"type":"VEC4"},{"bufferView":58,"componentType":5126,"count":2,"max":[1.75],"min":[0],"type":"SCALAR"},{"bufferView":59,"componentType":5126,"count":2,"max":[-0.05520833283662796,-0.1137152761220932,0.0416666679084301],"min":[-0.05520833283662796,-0.1137152761220932,0.0416666679084301],"type":"VEC3"},{"bufferView":60,"componentType":5126,"count":3,"max":[1.75],"min":[0],"type":"SCALAR"},{"bufferView":61,"componentType":5126,"count":3,"max":[0,-0.375,0],"min":[0,-0.390625,0],"type":"VEC3"},{"bufferView":62,"componentType":5126,"count":2,"max":[1.75],"min":[0],"type":"SCALAR"},{"bufferView":63,"componentType":5126,"count":2,"max":[0,0,0,1],"min":[0,0,0,1],"type":"VEC4"},{"bufferView":64,"componentType":5126,"count":2,"max":[1.75],"min":[0],"type":"SCALAR"},{"bufferView":65,"componentType":5126,"count":2,"max":[0.125,-0.421875,0],"min":[0.125,-0.421875,0],"type":"VEC3"},{"bufferView":66,"componentType":5126,"count":3,"max":[1.75],"min":[0],"type":"SCALAR"},{"bufferView":67,"componentType":5126,"count":3,"max":[0.02181488461792469,0,0,1],"min":[0,0,0,0.9997619986534119],"type":"VEC4"},{"bufferView":68,"componentType":5126,"count":3,"max":[1.75],"min":[0],"type":"SCALAR"},{"bufferView":69,"componentType":5126,"count":3,"max":[0,0,0,1],"min":[-0.06540312618017197,0,0,0.9978589415550232],"type":"VEC4"},{"bufferView":70,"componentType":5126,"count":3,"max":[1.75],"min":[0],"type":"SCALAR"},{"bufferView":71,"componentType":5126,"count":3,"max":[0,0,0,1],"min":[-0.08715574443340302,0,0,0.9961947202682495],"type":"VEC4"}],"materials":[{"pbrMetallicRoughness":{"metallicFactor":0,"roughnessFactor":1,"baseColorTexture":{"index":0}},"alphaMode":"MASK","alphaCutoff":0.05,"doubleSided":true}],"textures":[{"sampler":0,"source":0}],"samplers":[{"magFilter":9728,"minFilter":9728,"wrapS":33071,"wrapT":33071}],"images":[{"mimeType":"image/png","uri":"data:image/png;base64,"}],"meshes":[{"primitives":[{"mode":4,"attributes":{"POSITION":0,"NORMAL":1,"TEXCOORD_0":2,"JOINTS_0":3,"WEIGHTS_0":4},"indices":5,"material":0}]},{"primitives":[{"mode":4,"attributes":{"POSITION":6,"NORMAL":7,"TEXCOORD_0":8,"JOINTS_0":9,"WEIGHTS_0":10},"indices":11,"material":0}]}],"skins":[{"inverseBindMatrices":12,"joints":[35,21,0,1,10,7,6,5,4,3,2,8,9,15,14,13,12,11,20,19,18,17,16,34,27,26,25,24,23,22,33,32,31,30,29,28],"skeleton":35},{"inverseBindMatrices":13,"joints":[39,37,38],"skeleton":39}],"animations":[{"name":"Rig","samplers":[{"input":14,"output":15,"interpolation":"LINEAR"},{"input":16,"output":17,"interpolation":"LINEAR"},{"input":18,"output":19,"interpolation":"LINEAR"},{"input":20,"output":21,"interpolation":"LINEAR"},{"input":22,"output":23,"interpolation":"LINEAR"},{"input":24,"output":25,"interpolation":"LINEAR"},{"input":26,"output":27,"interpolation":"LINEAR"},{"input":28,"output":29,"interpolation":"LINEAR"},{"input":30,"output":31,"interpolation":"LINEAR"},{"input":32,"output":33,"interpolation":"LINEAR"},{"input":34,"output":35,"interpolation":"LINEAR"},{"input":36,"output":37,"interpolation":"LINEAR"},{"input":38,"output":39,"interpolation":"LINEAR"},{"input":40,"output":41,"interpolation":"LINEAR"},{"input":42,"output":43,"interpolation":"LINEAR"},{"input":44,"output":45,"interpolation":"LINEAR"},{"input":46,"output":47,"interpolation":"LINEAR"},{"input":48,"output":49,"interpolation":"LINEAR"},{"input":50,"output":51,"interpolation":"LINEAR"},{"input":52,"output":53,"interpolation":"LINEAR"},{"input":54,"output":55,"interpolation":"LINEAR"},{"input":56,"output":57,"interpolation":"LINEAR"},{"input":58,"output":59,"interpolation":"LINEAR"},{"input":60,"output":61,"interpolation":"LINEAR"},{"input":62,"output":63,"interpolation":"LINEAR"},{"input":64,"output":65,"interpolation":"LINEAR"},{"input":66,"output":67,"interpolation":"LINEAR"},{"input":68,"output":69,"interpolation":"LINEAR"},{"input":70,"output":71,"interpolation":"LINEAR"}],"channels":[{"sampler":0,"target":{"node":21,"path":"rotation"}},{"sampler":1,"target":{"node":21,"path":"translation"}},{"sampler":2,"target":{"node":19,"path":"rotation"}},{"sampler":3,"target":{"node":19,"path":"translation"}},{"sampler":4,"target":{"node":18,"path":"rotation"}},{"sampler":5,"target":{"node":18,"path":"translation"}},{"sampler":6,"target":{"node":26,"path":"rotation"}},{"sampler":7,"target":{"node":26,"path":"translation"}},{"sampler":8,"target":{"node":24,"path":"rotation"}},{"sampler":9,"target":{"node":32,"path":"rotation"}},{"sampler":10,"target":{"node":32,"path":"translation"}},{"sampler":11,"target":{"node":39,"path":"translation"}},{"sampler":12,"target":{"node":10,"path":"rotation"}},{"sampler":13,"target":{"node":10,"path":"translation"}},{"sampler":14,"target":{"node":7,"path":"translation"}},{"sampler":15,"target":{"node":14,"path":"rotation"}},{"sampler":16,"target":{"node":14,"path":"translation"}},{"sampler":17,"target":{"node":13,"path":"rotation"}},{"sampler":18,"target":{"node":11,"path":"rotation"}},{"sampler":19,"target":{"node":17,"path":"rotation"}},{"sampler":20,"target":{"node":17,"path":"translation"}},{"sampler":21,"target":{"node":16,"path":"rotation"}},{"sampler":22,"target":{"node":16,"path":"translation"}},{"sampler":23,"target":{"node":34,"path":"translation"}},{"sampler":24,"target":{"node":31,"path":"rotation"}},{"sampler":25,"target":{"node":31,"path":"translation"}},{"sampler":26,"target":{"node":30,"path":"rotation"}},{"sampler":27,"target":{"node":3,"path":"rotation"}},{"sampler":28,"target":{"node":2,"path":"rotation"}}]}]}