{"asset":{"version":"2.0","generator":"Blockbench 4.9.4 glTF exporter"},"scenes":[{"nodes":[18],"name":"blockbench_export"}],"scene":0,"nodes":[{"translation":[0.028234544450393723,2.3691599578036424,2.098087548608242],"name":"Nest"},{"translation":[0.12468996384600728,0.16020205733396375,-0.5669402751131483],"name":"Leg"},{"translation":[-0.558563605999064,0.23915985869022438,1.5092179489464979],"name":"Leg3"},{"translation":[-0.7506545539939551,0.4644477561034124,2.7019532440647236],"name":"Leg4"},{"translation":[-0.19743160896199563,0.347702057333964,0.56525567471663],"name":"Leg2"},{"translation":[-2.7617628277311947,0,0],"name":"Left_Legs","children":[1,2,3,4]},{"translation":[-0.1246899638460075,0.16020205733396353,-0.5669402751131483],"name":"Leg5"},{"translation":[0.558563605999064,0.23915985869022438,1.5092179489464979],"name":"Leg6"},{"translation":[0.7506545539939551,0.4644477561034124,2.7019532440647236],"name":"Leg7"},{"translation":[0.19743160896199563,0.347702057333964,0.56525567471663],"name":"Leg8"},{"name":"Right_Legs","children":[6,7,8,9]},{"translation":[1.3808814138655974,0.739451621901416,-0.8125],"name":"Legs","children":[5,10]},{"translation":[-0.2576628660078338,0.8166485593604089,-1.4421637522987274],"name":"Left"},{"translation":[0.27180636645282963,0.8301760352315404,-1.4421637522987272],"name":"Right"},{"translation":[-2.775557561562892e-17,-1.240552460435717,0.9635429014747283],"name":"Face","children":[12,13]},{"translation":[2.775557561562892e-17,1.240552460435717,-0.9635429014747283],"name":"Head","children":[14]},{"translation":[0.5176473168125304,1.4115243283917527,0.9202649726547436],"name":"Body_Hair"},{"name":"Spider","children":[0,11,15,16]},{"translation":[0,0.328125,0],"name":"Spider","mesh":0,"children":[17],"skin":0}],"bufferViews":[{"buffer":0,"byteOffset":0,"byteLength":24864,"target":34962,"byteStride":12},{"buffer":0,"byteOffset":24864,"byteLength":24864,"target":34962,"byteStride":12},{"buffer":0,"byteOffset":49728,"byteLength":16576,"target":34962,"byteStride":8},{"buffer":0,"byteOffset":66304,"byteLength":16576,"target":34962,"byteStride":8},{"buffer":0,"byteOffset":82880,"byteLength":33152,"target":34962,"byteStride":16},{"buffer":0,"byteOffset":116032,"byteLength":6216,"target":34963},{"buffer":0,"byteOffset":122248,"byteLength":1152},{"buffer":0,"byteOffset":123400,"byteLength":16},{"buffer":0,"byteOffset":123416,"byteLength":64},{"buffer":0,"byteOffset":123480,"byteLength":20},{"buffer":0,"byteOffset":123500,"byteLength":60},{"buffer":0,"byteOffset":123560,"byteLength":12},{"buffer":0,"byteOffset":123572,"byteLength":36},{"buffer":0,"byteOffset":123608,"byteLength":20},{"buffer":0,"byteOffset":123628,"byteLength":80},{"buffer":0,"byteOffset":123708,"byteLength":20},{"buffer":0,"byteOffset":123728,"byteLength":60},{"buffer":0,"byteOffset":123788,"byteLength":16},{"buffer":0,"byteOffset":123804,"byteLength":64},{"buffer":0,"byteOffset":123868,"byteLength":12},{"buffer":0,"byteOffset":123880,"byteLength":36},{"buffer":0,"byteOffset":123916,"byteLength":20},{"buffer":0,"byteOffset":123936,"byteLength":80},{"buffer":0,"byteOffset":124016,"byteLength":20},{"buffer":0,"byteOffset":124036,"byteLength":60},{"buffer":0,"byteOffset":124096,"byteLength":16},{"buffer":0,"byteOffset":124112,"byteLength":64},{"buffer":0,"byteOffset":124176,"byteLength":16},{"buffer":0,"byteOffset":124192,"byteLength":48},{"buffer":0,"byteOffset":124240,"byteLength":12},{"buffer":0,"byteOffset":124252,"byteLength":48},{"buffer":0,"byteOffset":124300,"byteLength":12},{"buffer":0,"byteOffset":124312,"byteLength":36},{"buffer":0,"byteOffset":124348,"byteLength":12},{"buffer":0,"byteOffset":124360,"byteLength":48},{"buffer":0,"byteOffset":124408,"byteLength":12},{"buffer":0,"byteOffset":124420,"byteLength":36},{"buffer":0,"byteOffset":124456,"byteLength":12},{"buffer":0,"byteOffset":124468,"byteLength":48},{"buffer":0,"byteOffset":124516,"byteLength":12},{"buffer":0,"byteOffset":124528,"byteLength":36},{"buffer":0,"byteOffset":124564,"byteLength":8},{"buffer":0,"byteOffset":124572,"byteLength":24},{"buffer":0,"byteOffset":124596,"byteLength":16},{"buffer":0,"byteOffset":124612,"byteLength":64},{"buffer":0,"byteOffset":124676,"byteLength":16},{"buffer":0,"byteOffset":124692,"byteLength":48},{"buffer":0,"byteOffset":124740,"byteLength":8},{"buffer":0,"byteOffset":124748,"byteLength":24},{"buffer":0,"byteOffset":124772,"byteLength":24},{"buffer":0,"byteOffset":124796,"byteLength":96},{"buffer":0,"byteOffset":124892,"byteLength":12},{"buffer":0,"byteOffset":124904,"byteLength":36},{"buffer":0,"byteOffset":124940,"byteLength":20},{"buffer":0,"byteOffset":124960,"byteLength":80}],"buffers":[{"byteLength":125040,"uri":"data:application/octet-stream;base64,"}],"accessors":[{"bufferView":0,"componentType":5126,"count":2072,"max":[3.12581205368042,3.666494131088257,3.6882212162017822],"min":[-3.12581205368042,-0.35573187470436096,-2.0581657886505127],"type":"VEC3"},{"bufferView":1,"componentType":5126,"count":2072,"max":[1,1,1],"min":[-1,-1,-1],"type":"VEC3"},{"bufferView":2,"componentType":5126,"count":2072,"max":[0.9375,0.84375],"min":[0,0],"type":"VEC2"},{"bufferView":3,"componentType":5123,"count":2072,"max":[0,17,0,0],"min":[0,0,0,0],"type":"VEC4"},{"bufferView":4,"componentType":5126,"count":2072,"max":[0,1,0,0],"min":[0,1,0,0],"type":"VEC4"},{"bufferView":5,"componentType":5123,"count":3108,"max":[2071],"min":[0],"type":"SCALAR"},{"bufferView":6,"componentType":5126,"count":18,"max":[1,0,0,0,0,1,0,0,0,0,1,0,2.1315360069274902,0,1.4421637058258057,1],"min":[1,0,0,0,0,1,0,0,0,0,1,0,-2.1315360069274902,-2.3691599369049072,-2.0980875492095947,1],"type":"MAT4"},{"bufferView":7,"componentType":5126,"count":4,"max":[0.75],"min":[0],"type":"SCALAR"},{"bufferView":8,"componentType":5126,"count":4,"max":[0,-0.1736481785774231,0,0.9848077297210693],"min":[0,-0.3214394748210907,0,0.9469301104545593],"type":"VEC4"},{"bufferView":9,"componentType":5126,"count":5,"max":[0.75],"min":[0],"type":"SCALAR"},{"bufferView":10,"componentType":5126,"count":5,"max":[0.1246899664402008,0.1602020561695099,-0.3013152778148651],"min":[0.1246899664402008,0.1602020561695099,-0.6763152480125427],"type":"VEC3"},{"bufferView":11,"componentType":5126,"count":3,"max":[0.75],"min":[0],"type":"SCALAR"},{"bufferView":12,"componentType":5126,"count":3,"max":[-0.37106361985206604,0.30165985226631165,1.5092179775238037],"min":[-0.5585635900497437,0.23915985226631165,1.5092179775238037],"type":"VEC3"},{"bufferView":13,"componentType":5126,"count":5,"max":[0.75],"min":[0],"type":"SCALAR"},{"bufferView":14,"componentType":5126,"count":5,"max":[0.00898587703704834,0.34132182598114014,-0.06341417878866196,0.9516749978065491],"min":[-0.005907995160669088,0.300061970949173,-0.10425948351621628,0.9341276288032532],"type":"VEC4"},{"bufferView":15,"componentType":5126,"count":5,"max":[0.75],"min":[0],"type":"SCALAR"},{"bufferView":16,"componentType":5126,"count":5,"max":[-0.6412795782089233,0.4644477665424347,2.795703172683716],"min":[-0.7506545782089233,0.4644477665424347,2.701953172683716],"type":"VEC3"},{"bufferView":17,"componentType":5126,"count":4,"max":[0.75],"min":[0],"type":"SCALAR"},{"bufferView":18,"componentType":5126,"count":4,"max":[0,0.15212339162826538,0,0.9978589415550232],"min":[0,0.06540312618017197,0,0.9883615374565125],"type":"VEC4"},{"bufferView":19,"componentType":5126,"count":3,"max":[0.75],"min":[0],"type":"SCALAR"},{"bufferView":20,"componentType":5126,"count":3,"max":[-0.19743160903453827,0.3477020561695099,0.6121307015419006],"min":[-0.19743160903453827,0.3477020561695099,0.5652557015419006],"type":"VEC3"},{"bufferView":21,"componentType":5126,"count":5,"max":[0.75],"min":[0],"type":"SCALAR"},{"bufferView":22,"componentType":5126,"count":5,"max":[0,0.3826834261417389,0,0.9659258127212524],"min":[0,0.258819043636322,0,0.9238795042037964],"type":"VEC4"},{"bufferView":23,"componentType":5126,"count":5,"max":[0.75],"min":[0],"type":"SCALAR"},{"bufferView":24,"componentType":5126,"count":5,"max":[-0.1246899664402008,0.1602020561695099,-0.4419402778148651],"min":[-0.1871899664402008,0.1602020561695099,-0.6450652480125427],"type":"VEC3"},{"bufferView":25,"componentType":5126,"count":4,"max":[0.75],"min":[0],"type":"SCALAR"},{"bufferView":26,"componentType":5126,"count":4,"max":[0.0018159314058721066,-0.15179768204689026,0.06526309251785278,0.986245334148407],"min":[-0.004277569241821766,-0.23715035617351532,0.0628427267074585,0.969436526298523],"type":"VEC4"},{"bufferView":27,"componentType":5126,"count":4,"max":[0.75],"min":[0],"type":"SCALAR"},{"bufferView":28,"componentType":5126,"count":4,"max":[0.5585635900497437,0.23915985226631165,1.5092179775238037],"min":[0.30856361985206604,0.23915985226631165,1.5092179775238037],"type":"VEC3"},{"bufferView":29,"componentType":5126,"count":3,"max":[0.75],"min":[0],"type":"SCALAR"},{"bufferView":30,"componentType":5126,"count":3,"max":[0.01062266156077385,-0.300061970949173,0.06515424698591232,0.9516749978065491],"min":[0.0057002585381269455,-0.3616122603416443,0.062498655170202255,0.9301707744598389],"type":"VEC4"},{"bufferView":31,"componentType":5126,"count":3,"max":[0.75],"min":[0],"type":"SCALAR"},{"bufferView":32,"componentType":5126,"count":3,"max":[0.7506545782089233,0.4644477665424347,2.701953172683716],"min":[0.7506545782089233,0.4644477665424347,2.592578172683716],"type":"VEC3"},{"bufferView":33,"componentType":5126,"count":3,"max":[0.75],"min":[0],"type":"SCALAR"},{"bufferView":34,"componentType":5126,"count":3,"max":[0,0,0,1],"min":[0,-0.06540312618017197,0,0.9978589415550232],"type":"VEC4"},{"bufferView":35,"componentType":5126,"count":3,"max":[0.75],"min":[0],"type":"SCALAR"},{"bufferView":36,"componentType":5126,"count":3,"max":[0.19743160903453827,0.3477020561695099,0.5652557015419006],"min":[0.19743160903453827,0.3477020561695099,0.40900567173957825],"type":"VEC3"},{"bufferView":37,"componentType":5126,"count":3,"max":[0.75],"min":[0],"type":"SCALAR"},{"bufferView":38,"componentType":5126,"count":3,"max":[0,0,0,1],"min":[0,0,-0.08715574443340302,0.9961947202682495],"type":"VEC4"},{"bufferView":39,"componentType":5126,"count":3,"max":[0.75],"min":[0],"type":"SCALAR"},{"bufferView":40,"componentType":5126,"count":3,"max":[-0.17953786253929138,0.816648542881012,-1.4421637058258057],"min":[-0.2576628625392914,0.816648542881012,-1.4421637058258057],"type":"VEC3"},{"bufferView":41,"componentType":5126,"count":2,"max":[0.75],"min":[0],"type":"SCALAR"},{"bufferView":42,"componentType":5126,"count":2,"max":[1,1,1],"min":[1,1,1],"type":"VEC3"},{"bufferView":43,"componentType":5126,"count":4,"max":[0.75],"min":[0],"type":"SCALAR"},{"bufferView":44,"componentType":5126,"count":4,"max":[0,0,0.19509032368659973,1],"min":[0,0,0,0.9807852506637573],"type":"VEC4"},{"bufferView":45,"componentType":5126,"count":4,"max":[0.75],"min":[0],"type":"SCALAR"},{"bufferView":46,"componentType":5126,"count":4,"max":[0.27180635929107666,0.830176055431366,-1.4421637058258057],"min":[0.20930635929107666,0.736426055431366,-1.4421637058258057],"type":"VEC3"},{"bufferView":47,"componentType":5126,"count":2,"max":[0.75],"min":[0],"type":"SCALAR"},{"bufferView":48,"componentType":5126,"count":2,"max":[1,1,1],"min":[1,1,1],"type":"VEC3"},{"bufferView":49,"componentType":5126,"count":6,"max":[0.75],"min":[0],"type":"SCALAR"},{"bufferView":50,"componentType":5126,"count":6,"max":[0,0.06540312618017197,0.0057002585381269455,1],"min":[-0.08696913719177246,-0.06540312618017197,0,0.9940617680549622],"type":"VEC4"},{"bufferView":51,"componentType":5126,"count":3,"max":[0.75],"min":[0],"type":"SCALAR"},{"bufferView":52,"componentType":5126,"count":3,"max":[2.7755575615628914e-17,1.2405524253845215,-0.9635428786277771],"min":[2.7755575615628914e-17,1.1780524253845215,-0.9635428786277771],"type":"VEC3"},{"bufferView":53,"componentType":5126,"count":5,"max":[0.75],"min":[0],"type":"SCALAR"},{"bufferView":54,"componentType":5126,"count":5,"max":[0.04324621707201004,0.08707278966903687,0.00569347245618701,1],"min":[-0.04360900819301605,-0.021794121712446213,-0.0009515519486740232,0.9952465295791626],"type":"VEC4"}],"materials":[{"pbrMetallicRoughness":{"metallicFactor":0,"roughnessFactor":1,"baseColorTexture":{"index":0}},"alphaMode":"MASK","alphaCutoff":0.05,"doubleSided":true}],"textures":[{"sampler":0,"source":0}],"samplers":[{"magFilter":9728,"minFilter":9728,"wrapS":33071,"wrapT":33071}],"images":[{"mimeType":"image/png","uri":"data:image/png;base64,"}],"meshes":[{"primitives":[{"mode":4,"attributes":{"POSITION":0,"NORMAL":1,"TEXCOORD_0":2,"JOINTS_0":3,"WEIGHTS_0":4},"indices":5,"material":0}]}],"skins":[{"inverseBindMatrices":6,"joints":[17,0,11,5,1,2,3,4,10,6,7,8,9,15,14,12,13,16],"skeleton":17}],"animations":[{"name":"Idle","samplers":[{"input":7,"output":8,"interpolation":"LINEAR"},{"input":9,"output":10,"interpolation":"LINEAR"},{"input":11,"output":12,"interpolation":"LINEAR"},{"input":13,"output":14,"interpolation":"LINEAR"},{"input":15,"output":16,"interpolation":"LINEAR"},{"input":17,"output":18,"interpolation":"LINEAR"},{"input":19,"output":20,"interpolation":"LINEAR"},{"input":21,"output":22,"interpolation":"LINEAR"},{"input":23,"output":24,"interpolation":"LINEAR"},{"input":25,"output":26,"interpolation":"LINEAR"},{"input":27,"output":28,"interpolation":"LINEAR"},{"input":29,"output":30,"interpolation":"LINEAR"},{"input":31,"output":32,"interpolation":"LINEAR"},{"input":33,"output":34,"interpolation":"LINEAR"},{"input":35,"output":36,"interpolation":"LINEAR"},{"input":37,"output":38,"interpolation":"LINEAR"},{"input":39,"output":40,"interpolation":"LINEAR"},{"input":41,"output":42,"interpolation":"LINEAR"},{"input":43,"output":44,"interpolation":"LINEAR"},{"input":45,"output":46,"interpolation":"LINEAR"},{"input":47,"output":48,"interpolation":"LINEAR"},{"input":49,"output":50,"interpolation":"LINEAR"},{"input":51,"output":52,"interpolation":"LINEAR"},{"input":53,"output":54,"interpolation":"LINEAR"}],"channels":[{"sampler":0,"target":{"node":1,"path":"rotation"}},{"sampler":1,"target":{"node":1,"path":"translation"}},{"sampler":2,"target":{"node":2,"path":"translation"}},{"sampler":3,"target":{"node":3,"path":"rotation"}},{"sampler":4,"target":{"node":3,"path":"translation"}},{"sampler":5,"target":{"node":4,"path":"rotation"}},{"sampler":6,"target":{"node":4,"path":"translation"}},{"sampler":7,"target":{"node":6,"path":"rotation"}},{"sampler":8,"target":{"node":6,"path":"translation"}},{"sampler":9,"target":{"node":7,"path":"rotation"}},{"sampler":10,"target":{"node":7,"path":"translation"}},{"sampler":11,"target":{"node":8,"path":"rotation"}},{"sampler":12,"target":{"node":8,"path":"translation"}},{"sampler":13,"target":{"node":9,"path":"rotation"}},{"sampler":14,"target":{"node":9,"path":"translation"}},{"sampler":15,"target":{"node":12,"path":"rotation"}},{"sampler":16,"target":{"node":12,"path":"translation"}},{"sampler":17,"target":{"node":12,"path":"scale"}},{"sampler":18,"target":{"node":13,"path":"rotation"}},{"sampler":19,"target":{"node":13,"path":"translation"}},{"sampler":20,"target":{"node":13,"path":"scale"}},{"sampler":21,"target":{"node":15,"path":"rotation"}},{"sampler":22,"target":{"node":15,"path":"translation"}},{"sampler":23,"target":{"node":0,"path":"rotation"}}]}]}