{"asset":{"version":"2.0","generator":"Blockbench 4.9.4 glTF exporter"},"scenes":[{"nodes":[34],"name":"blockbench_export"}],"scene":0,"nodes":[{"translation":[-0.046639178987473176,1.2115846735862568,0.14792057766315753],"name":"head"},{"translation":[-0.03586791599999917,0.09094532167906655,0.13056889763369717],"name":"Shield"},{"translation":[0.7517480503291969,0.1408999984027508,-0.7050200772150788],"name":"left_hand","children":[1]},{"translation":[-0.8224396119313293,-0.058863326351759504,1.3732450697752567],"name":"left_lower_arm","children":[2]},{"translation":[-0.034271287705968545,-0.45749627488937916,0.16453408591023397],"name":"left_elbow","children":[3]},{"translation":[-0.030781987859076654,-0.040348200041949944,0.01894893900244618],"name":"left_upper_arm","children":[4]},{"translation":[0.5239660598184684,0.7953124999999996,0.09967279375315546],"name":"left_arm","children":[5]},{"translation":[0.029213082713221983,-0.039847396611259356,0.12303300616388807],"name":"Sword2"},{"translation":[-0.21613053838263174,-0.0791148793520895,0.08220573540503653],"name":"right_hand","children":[7]},{"translation":[-0.3583401071375346,-0.0323264995326471,0.2581121301749412],"name":"right_lower_arm","children":[8]},{"translation":[0.06194118690381589,-0.4833346564328389,-0.009986359741978396],"name":"right_elbow","children":[9]},{"translation":[0.020810477551215567,-0.04462410130836547,0.02258725124956701],"name":"right_upper_arm","children":[10]},{"translation":[-0.4863778348804343,0.7953124999999996,-0.21888741259668382],"name":"right_arm","children":[11]},{"translation":[0,1.25,0],"name":"torso","children":[0,6,12]},{"translation":[-0.2574164335860448,1.1102230246251565e-15,-0.6276731602722003],"name":"front"},{"name":"back"},{"name":"right"},{"translation":[-0.7078305724775248,0,-0.12480962769810622],"name":"left"},{"translation":[0.2128261418843815,1.259375,0.8625611131714721],"name":"plates","children":[14,15,16,17]},{"translation":[-0.05426505552091573,1.375,0.307752422816315],"name":"leather_strings"},{"translation":[0.16503950383104,1.4285210137402227,0.2829575703795866],"name":"front_plate_flaps"},{"translation":[-0.16503950383104,1.4285210137402227,-0.2829575703795866],"name":"back_plate_flaps"},{"translation":[0.22002824452894323,-0.5986373049848953,0.024503471024636764],"name":"left_foot"},{"translation":[-0.21581558676069787,-0.1875,0.07198225483503334],"name":"left_lower_leg","children":[22]},{"translation":[0.21589428779293812,0.8730321693107096,-0.07017970484418315],"name":"left_knee","children":[23]},{"translation":[-0.24567273782996418,-0.9375,0.10456561761463315],"name":"left_thigh","children":[24]},{"translation":[0.23534892714886885,0.9375,0.10496252897999558],"name":"left_leg","children":[25]},{"translation":[-0.14060978961893045,-0.40625,-0.16757222193227642],"name":"right_foot"},{"translation":[0.2812195792378609,-0.09375,0.33514444386455283],"name":"right_lower_leg","children":[27]},{"translation":[-0.16757222193227644,0.875,-0.14060978961893045],"name":"right_knee","children":[28]},{"translation":[0.2548990651040578,-1.0625,0.1188613861145717],"name":"right_thigh","children":[29]},{"translation":[-0.23534892714886885,1.0625,-0.10496252897999558],"name":"right_leg","children":[30]},{"translation":[0,-0.375,0],"name":"waist","children":[18,19,20,21,26,31]},{"name":"Trial","children":[13,32]},{"rotation":[0,-0.08715574274765817,0,0.9961946980917455],"translation":[0,0.375,0],"name":"Trial","mesh":0,"children":[33],"skin":0}],"bufferViews":[{"buffer":0,"byteOffset":0,"byteLength":70464,"target":34962,"byteStride":12},{"buffer":0,"byteOffset":70464,"byteLength":70464,"target":34962,"byteStride":12},{"buffer":0,"byteOffset":140928,"byteLength":46976,"target":34962,"byteStride":8},{"buffer":0,"byteOffset":187904,"byteLength":46976,"target":34962,"byteStride":8},{"buffer":0,"byteOffset":234880,"byteLength":93952,"target":34962,"byteStride":16},{"buffer":0,"byteOffset":328832,"byteLength":17616,"target":34963},{"buffer":0,"byteOffset":346448,"byteLength":2176},{"buffer":0,"byteOffset":348624,"byteLength":8},{"buffer":0,"byteOffset":348632,"byteLength":32},{"buffer":0,"byteOffset":348664,"byteLength":12},{"buffer":0,"byteOffset":348676,"byteLength":36},{"buffer":0,"byteOffset":348712,"byteLength":12},{"buffer":0,"byteOffset":348724,"byteLength":48},{"buffer":0,"byteOffset":348772,"byteLength":12},{"buffer":0,"byteOffset":348784,"byteLength":36},{"buffer":0,"byteOffset":348820,"byteLength":12},{"buffer":0,"byteOffset":348832,"byteLength":48},{"buffer":0,"byteOffset":348880,"byteLength":12},{"buffer":0,"byteOffset":348892,"byteLength":36},{"buffer":0,"byteOffset":348928,"byteLength":12},{"buffer":0,"byteOffset":348940,"byteLength":48},{"buffer":0,"byteOffset":348988,"byteLength":8},{"buffer":0,"byteOffset":348996,"byteLength":32},{"buffer":0,"byteOffset":349028,"byteLength":12},{"buffer":0,"byteOffset":349040,"byteLength":48},{"buffer":0,"byteOffset":349088,"byteLength":8},{"buffer":0,"byteOffset":349096,"byteLength":24},{"buffer":0,"byteOffset":349120,"byteLength":12},{"buffer":0,"byteOffset":349132,"byteLength":48},{"buffer":0,"byteOffset":349180,"byteLength":8},{"buffer":0,"byteOffset":349188,"byteLength":32},{"buffer":0,"byteOffset":349220,"byteLength":8},{"buffer":0,"byteOffset":349228,"byteLength":24},{"buffer":0,"byteOffset":349252,"byteLength":12},{"buffer":0,"byteOffset":349264,"byteLength":48},{"buffer":0,"byteOffset":349312,"byteLength":8},{"buffer":0,"byteOffset":349320,"byteLength":24},{"buffer":0,"byteOffset":349344,"byteLength":8},{"buffer":0,"byteOffset":349352,"byteLength":32},{"buffer":0,"byteOffset":349384,"byteLength":12},{"buffer":0,"byteOffset":349396,"byteLength":48},{"buffer":0,"byteOffset":349444,"byteLength":12},{"buffer":0,"byteOffset":349456,"byteLength":48},{"buffer":0,"byteOffset":349504,"byteLength":8},{"buffer":0,"byteOffset":349512,"byteLength":24},{"buffer":0,"byteOffset":349536,"byteLength":8},{"buffer":0,"byteOffset":349544,"byteLength":32},{"buffer":0,"byteOffset":349576,"byteLength":8},{"buffer":0,"byteOffset":349584,"byteLength":24},{"buffer":0,"byteOffset":349608,"byteLength":12},{"buffer":0,"byteOffset":349620,"byteLength":48},{"buffer":0,"byteOffset":349668,"byteLength":12},{"buffer":0,"byteOffset":349680,"byteLength":48},{"buffer":0,"byteOffset":349728,"byteLength":8},{"buffer":0,"byteOffset":349736,"byteLength":32},{"buffer":0,"byteOffset":349768,"byteLength":8},{"buffer":0,"byteOffset":349776,"byteLength":32},{"buffer":0,"byteOffset":349808,"byteLength":12},{"buffer":0,"byteOffset":349820,"byteLength":36},{"buffer":0,"byteOffset":349856,"byteLength":8},{"buffer":0,"byteOffset":349864,"byteLength":24},{"buffer":0,"byteOffset":349888,"byteLength":12},{"buffer":0,"byteOffset":349900,"byteLength":48},{"buffer":0,"byteOffset":349948,"byteLength":12},{"buffer":0,"byteOffset":349960,"byteLength":36}],"buffers":[{"byteLength":349996,"uri":"data:application/octet-stream;base64,"}],"accessors":[{"bufferView":0,"componentType":5126,"count":5872,"max":[1.1966043710708618,2.942187547683716,1.2728720903396606],"min":[-1.191027283668518,-0.38185515999794006,-0.5074875354766846],"type":"VEC3"},{"bufferView":1,"componentType":5126,"count":5872,"max":[1,1,1],"min":[-1,-1,-1],"type":"VEC3"},{"bufferView":2,"componentType":5126,"count":5872,"max":[0.64453125,0.953125],"min":[0,0],"type":"VEC2"},{"bufferView":3,"componentType":5123,"count":5872,"max":[0,33,0,0],"min":[0,1,0,0],"type":"VEC4"},{"bufferView":4,"componentType":5126,"count":5872,"max":[0,1,0,0],"min":[0,1,0,0],"type":"VEC4"},{"bufferView":5,"componentType":5123,"count":8808,"max":[5871],"min":[0],"type":"SCALAR"},{"bufferView":6,"componentType":5126,"count":34,"max":[1,0,0,0,0,1,0,0,0,0,1,0,0.9780968427658081,0.375,0.2829575836658478,1],"min":[1,0,0,0,0,1,0,0,0,0,1,0,-0.5239660739898682,-2.4615845680236816,-1.6564009189605713,1],"type":"MAT4"},{"bufferView":7,"componentType":5126,"count":2,"max":[1.75],"min":[0],"type":"SCALAR"},{"bufferView":8,"componentType":5126,"count":2,"max":[0,-0.06540312618017197,0,0.9978589415550232],"min":[0,-0.06540312618017197,0,0.9978589415550232],"type":"VEC4"},{"bufferView":9,"componentType":5126,"count":3,"max":[1.75],"min":[0],"type":"SCALAR"},{"bufferView":10,"componentType":5126,"count":3,"max":[0,1.25,0],"min":[0,1.203125,0],"type":"VEC3"},{"bufferView":11,"componentType":5126,"count":3,"max":[1.75],"min":[0],"type":"SCALAR"},{"bufferView":12,"componentType":5126,"count":3,"max":[0,0.06540312618017197,0,1],"min":[0,0,0,0.9978589415550232],"type":"VEC4"},{"bufferView":13,"componentType":5126,"count":3,"max":[1.75],"min":[0],"type":"SCALAR"},{"bufferView":14,"componentType":5126,"count":3,"max":[1.726757230369554e-17,1.2115846872329712,0.1550990343093872],"min":[1.726757230369554e-17,1.1959596872329712,0.1550990343093872],"type":"VEC3"},{"bufferView":15,"componentType":5126,"count":3,"max":[1.75],"min":[0],"type":"SCALAR"},{"bufferView":16,"componentType":5126,"count":3,"max":[-0.21597619354724884,0.011357134208083153,0.06515424698591232,0.9742056727409363],"min":[-0.300061970949173,0.0057002585381269455,0.06440950930118561,0.9516749978065491],"type":"VEC4"},{"bufferView":17,"componentType":5126,"count":3,"max":[1.75],"min":[0],"type":"SCALAR"},{"bufferView":18,"componentType":5126,"count":3,"max":[0.5296875238418579,0.7953125238418579,-0.0625],"min":[0.5296875238418579,0.7953125238418579,-0.125],"type":"VEC3"},{"bufferView":19,"componentType":5126,"count":3,"max":[1.75],"min":[0],"type":"SCALAR"},{"bufferView":20,"componentType":5126,"count":3,"max":[-0.4222160279750824,0,0,0.9063078165054321],"min":[-0.4226182699203491,-0.018434349447488785,-0.03953259065747261,0.9054451584815979],"type":"VEC4"},{"bufferView":21,"componentType":5126,"count":2,"max":[1.75],"min":[0],"type":"SCALAR"},{"bufferView":22,"componentType":5126,"count":2,"max":[0,0,-0.6087614297866821,0.7933533191680908],"min":[0,0,-0.6087614297866821,0.7933533191680908],"type":"VEC4"},{"bufferView":23,"componentType":5126,"count":3,"max":[1.75],"min":[0],"type":"SCALAR"},{"bufferView":24,"componentType":5126,"count":3,"max":[0.021395718678832054,-0.06538756191730499,0.004255873151123524,0.997621476650238],"min":[-0.08641011267900467,-0.13002949953079224,-0.01137610711157322,0.9876720905303955],"type":"VEC4"},{"bufferView":25,"componentType":5126,"count":2,"max":[1.75],"min":[0],"type":"SCALAR"},{"bufferView":26,"componentType":5126,"count":2,"max":[-0.5296875238418579,0.7953125238418579,-0.0625],"min":[-0.5296875238418579,0.7953125238418579,-0.0625],"type":"VEC3"},{"bufferView":27,"componentType":5126,"count":3,"max":[1.75],"min":[0],"type":"SCALAR"},{"bufferView":28,"componentType":5126,"count":3,"max":[-0.4673275053501129,-0.05501857027411461,-0.10026213526725769,0.8766558170318604],"min":[-0.47539079189300537,-0.07316964119672775,-0.13337063789367676,0.8665229678153992],"type":"VEC4"},{"bufferView":29,"componentType":5126,"count":2,"max":[1.75],"min":[0],"type":"SCALAR"},{"bufferView":30,"componentType":5126,"count":2,"max":[-0.04361938685178757,0,0,0.9990482330322266],"min":[-0.04361938685178757,0,0,0.9990482330322266],"type":"VEC4"},{"bufferView":31,"componentType":5126,"count":2,"max":[1.75],"min":[0],"type":"SCALAR"},{"bufferView":32,"componentType":5126,"count":2,"max":[-0.25,-0.9375,0.09375],"min":[-0.25,-0.9375,0.09375],"type":"VEC3"},{"bufferView":33,"componentType":5126,"count":3,"max":[1.75],"min":[0],"type":"SCALAR"},{"bufferView":34,"componentType":5126,"count":3,"max":[0.06540312618017197,0,0,0.9990482330322266],"min":[0.04361938685178757,0,0,0.9978589415550232],"type":"VEC4"},{"bufferView":35,"componentType":5126,"count":2,"max":[1.75],"min":[0],"type":"SCALAR"},{"bufferView":36,"componentType":5126,"count":2,"max":[0.21875,0.875,0.015625],"min":[0.21875,0.875,0.015625],"type":"VEC3"},{"bufferView":37,"componentType":5126,"count":2,"max":[1.75],"min":[0],"type":"SCALAR"},{"bufferView":38,"componentType":5126,"count":2,"max":[-0.02181488461792469,0,0,0.9997619986534119],"min":[-0.02181488461792469,0,0,0.9997619986534119],"type":"VEC4"},{"bufferView":39,"componentType":5126,"count":3,"max":[1.75],"min":[0],"type":"SCALAR"},{"bufferView":40,"componentType":5126,"count":3,"max":[0.02181488461792469,0.08715574443340302,0,0.9997619986534119],"min":[0,0,0,0.9961947202682495],"type":"VEC4"},{"bufferView":41,"componentType":5126,"count":3,"max":[1.75],"min":[0],"type":"SCALAR"},{"bufferView":42,"componentType":5126,"count":3,"max":[0,-0.13052618503570557,0,0.9914448857307434],"min":[0,-0.15212339162826538,0,0.9883615374565125],"type":"VEC4"},{"bufferView":43,"componentType":5126,"count":2,"max":[1.75],"min":[0],"type":"SCALAR"},{"bufferView":44,"componentType":5126,"count":2,"max":[-0.25,1.0625,-0.0625],"min":[-0.25,1.0625,-0.0625],"type":"VEC3"},{"bufferView":45,"componentType":5126,"count":2,"max":[1.75],"min":[0],"type":"SCALAR"},{"bufferView":46,"componentType":5126,"count":2,"max":[0,-0.13052618503570557,0,0.9914448857307434],"min":[0,-0.13052618503570557,0,0.9914448857307434],"type":"VEC4"},{"bufferView":47,"componentType":5126,"count":2,"max":[1.75],"min":[0],"type":"SCALAR"},{"bufferView":48,"componentType":5126,"count":2,"max":[0.28125,-1.0625,0],"min":[0.28125,-1.0625,0],"type":"VEC3"},{"bufferView":49,"componentType":5126,"count":3,"max":[1.75],"min":[0],"type":"SCALAR"},{"bufferView":50,"componentType":5126,"count":3,"max":[0.0434534028172493,-0.08707278966903687,0.0038016801699995995,0.9961947202682495],"min":[0,-0.08715574443340302,0,0.9952465295791626],"type":"VEC4"},{"bufferView":51,"componentType":5126,"count":3,"max":[1.75],"min":[0],"type":"SCALAR"},{"bufferView":52,"componentType":5126,"count":3,"max":[0,0,0,1],"min":[-0.04361938685178757,0,0,0.9990482330322266],"type":"VEC4"},{"bufferView":53,"componentType":5126,"count":2,"max":[1.75],"min":[0],"type":"SCALAR"},{"bufferView":54,"componentType":5126,"count":2,"max":[0,-0.08715574443340302,0,0.9961947202682495],"min":[0,-0.08715574443340302,0,0.9961947202682495],"type":"VEC4"},{"bufferView":55,"componentType":5126,"count":2,"max":[1.75],"min":[0],"type":"SCALAR"},{"bufferView":56,"componentType":5126,"count":2,"max":[0,0,0,1],"min":[0,0,0,1],"type":"VEC4"},{"bufferView":57,"componentType":5126,"count":3,"max":[1.75],"min":[0],"type":"SCALAR"},{"bufferView":58,"componentType":5126,"count":3,"max":[0,-0.375,0],"min":[0,-0.390625,0],"type":"VEC3"},{"bufferView":59,"componentType":5126,"count":2,"max":[1.75],"min":[0],"type":"SCALAR"},{"bufferView":60,"componentType":5126,"count":2,"max":[-0.36250001192092896,1.1102230246251565e-15,-0.573437511920929],"min":[-0.36250001192092896,1.1102230246251565e-15,-0.573437511920929],"type":"VEC3"},{"bufferView":61,"componentType":5126,"count":3,"max":[1.75],"min":[0],"type":"SCALAR"},{"bufferView":62,"componentType":5126,"count":3,"max":[0,0.10886687785387039,0,0.9978589415550232],"min":[0,0.06540312618017197,0,0.9940563440322876],"type":"VEC4"},{"bufferView":63,"componentType":5126,"count":3,"max":[1.75],"min":[0],"type":"SCALAR"},{"bufferView":64,"componentType":5126,"count":3,"max":[0.25,0.9375,0.078125],"min":[0.25,0.9375,0.0625],"type":"VEC3"}],"materials":[{"pbrMetallicRoughness":{"metallicFactor":0,"roughnessFactor":1,"baseColorTexture":{"index":0}},"alphaMode":"MASK","alphaCutoff":0.05,"doubleSided":true}],"textures":[{"sampler":0,"source":0}],"samplers":[{"magFilter":9728,"minFilter":9728,"wrapS":33071,"wrapT":33071}],"images":[{"mimeType":"image/png","uri":"data:image/png;base64,"}],"meshes":[{"primitives":[{"mode":4,"attributes":{"POSITION":0,"NORMAL":1,"TEXCOORD_0":2,"JOINTS_0":3,"WEIGHTS_0":4},"indices":5,"material":0}]}],"skins":[{"inverseBindMatrices":6,"joints":[33,13,0,6,5,4,3,2,1,12,11,10,9,8,7,32,18,14,15,16,17,19,20,21,26,25,24,23,22,31,30,29,28,27],"skeleton":33}],"animations":[{"name":"Idle","samplers":[{"input":7,"output":8,"interpolation":"LINEAR"},{"input":9,"output":10,"interpolation":"LINEAR"},{"input":11,"output":12,"interpolation":"LINEAR"},{"input":13,"output":14,"interpolation":"LINEAR"},{"input":15,"output":16,"interpolation":"LINEAR"},{"input":17,"output":18,"interpolation":"LINEAR"},{"input":19,"output":20,"interpolation":"LINEAR"},{"input":21,"output":22,"interpolation":"LINEAR"},{"input":23,"output":24,"interpolation":"LINEAR"},{"input":25,"output":26,"interpolation":"LINEAR"},{"input":27,"output":28,"interpolation":"LINEAR"},{"input":29,"output":30,"interpolation":"LINEAR"},{"input":31,"output":32,"interpolation":"LINEAR"},{"input":33,"output":34,"interpolation":"LINEAR"},{"input":35,"output":36,"interpolation":"LINEAR"},{"input":37,"output":38,"interpolation":"LINEAR"},{"input":39,"output":40,"interpolation":"LINEAR"},{"input":41,"output":42,"interpolation":"LINEAR"},{"input":43,"output":44,"interpolation":"LINEAR"},{"input":45,"output":46,"interpolation":"LINEAR"},{"input":47,"output":48,"interpolation":"LINEAR"},{"input":49,"output":50,"interpolation":"LINEAR"},{"input":51,"output":52,"interpolation":"LINEAR"},{"input":53,"output":54,"interpolation":"LINEAR"},{"input":55,"output":56,"interpolation":"LINEAR"},{"input":57,"output":58,"interpolation":"LINEAR"},{"input":59,"output":60,"interpolation":"LINEAR"},{"input":61,"output":62,"interpolation":"LINEAR"},{"input":63,"output":64,"interpolation":"LINEAR"}],"channels":[{"sampler":0,"target":{"node":13,"path":"rotation"}},{"sampler":1,"target":{"node":13,"path":"translation"}},{"sampler":2,"target":{"node":0,"path":"rotation"}},{"sampler":3,"target":{"node":0,"path":"translation"}},{"sampler":4,"target":{"node":6,"path":"rotation"}},{"sampler":5,"target":{"node":6,"path":"translation"}},{"sampler":6,"target":{"node":4,"path":"rotation"}},{"sampler":7,"target":{"node":2,"path":"rotation"}},{"sampler":8,"target":{"node":12,"path":"rotation"}},{"sampler":9,"target":{"node":12,"path":"translation"}},{"sampler":10,"target":{"node":10,"path":"rotation"}},{"sampler":11,"target":{"node":25,"path":"rotation"}},{"sampler":12,"target":{"node":25,"path":"translation"}},{"sampler":13,"target":{"node":24,"path":"rotation"}},{"sampler":14,"target":{"node":24,"path":"translation"}},{"sampler":15,"target":{"node":23,"path":"rotation"}},{"sampler":16,"target":{"node":22,"path":"rotation"}},{"sampler":17,"target":{"node":31,"path":"rotation"}},{"sampler":18,"target":{"node":31,"path":"translation"}},{"sampler":19,"target":{"node":30,"path":"rotation"}},{"sampler":20,"target":{"node":30,"path":"translation"}},{"sampler":21,"target":{"node":29,"path":"rotation"}},{"sampler":22,"target":{"node":27,"path":"rotation"}},{"sampler":23,"target":{"node":33,"path":"rotation"}},{"sampler":24,"target":{"node":9,"path":"rotation"}},{"sampler":25,"target":{"node":32,"path":"translation"}},{"sampler":26,"target":{"node":14,"path":"translation"}},{"sampler":27,"target":{"node":26,"path":"rotation"}},{"sampler":28,"target":{"node":26,"path":"translation"}}]}]}