{"asset":{"version":"2.0","generator":"Blockbench 4.9.4 glTF exporter"},"scenes":[{"nodes":[13],"name":"blockbench_export"}],"scene":0,"nodes":[{"name":"back_hair_left"},{"translation":[4.718447854656915e-16,0.20086601386234726,-1.180880071959161],"name":"back_hair_right"},{"translation":[0.1868444531249995,1.542682674164834,3.9556985952351034],"name":"Torso","children":[0,1]},{"translation":[-0.8736406250000002,0.11158479665608656,-0.6440784350562194],"name":"front_left_leg"},{"translation":[0.873640625,0.11158479665608656,-0.6440784350562194],"name":"front_right_leg"},{"translation":[0,0,1.8688398437499996],"name":"back_left_leg"},{"translation":[0,0,1.8688398437499996],"name":"back_right_leg"},{"translation":[0.18684445312499984,-0.8399682832712482,2.1291790244987756],"name":"legs","children":[3,4,5,6]},{"name":"Mouth"},{"translation":[-0.4686223496781356,0.02853514895535425,0.7169251182487755],"name":"left_head_hair"},{"translation":[0.8423112559281352,0.02853514895535425,0.7169251182487755],"name":"right_head_hair"},{"translation":[0,0.13749999999999996,0],"name":"head","children":[8,9,10]},{"name":"bear","children":[2,7,11]},{"translation":[-0.14770312499999988,0.8515065480405124,-2.3706454739120755],"name":"bear","mesh":0,"children":[12],"skin":0}],"bufferViews":[{"buffer":0,"byteOffset":0,"byteLength":14112,"target":34962,"byteStride":12},{"buffer":0,"byteOffset":14112,"byteLength":14112,"target":34962,"byteStride":12},{"buffer":0,"byteOffset":28224,"byteLength":9408,"target":34962,"byteStride":8},{"buffer":0,"byteOffset":37632,"byteLength":9408,"target":34962,"byteStride":8},{"buffer":0,"byteOffset":47040,"byteLength":18816,"target":34962,"byteStride":16},{"buffer":0,"byteOffset":65856,"byteLength":3528,"target":34963},{"buffer":0,"byteOffset":69384,"byteLength":832}],"buffers":[{"byteLength":70216,"uri":"data:application/octet-stream;base64,"}],"accessors":[{"bufferView":0,"componentType":5126,"count":1176,"max":[1.3490632772445679,2.2981693744659424,4.706162929534912],"min":[-0.9753743410110474,-0.8455520868301392,-0.7722611427307129],"type":"VEC3"},{"bufferView":1,"componentType":5126,"count":1176,"max":[1,1,1],"min":[-1,-1,-1],"type":"VEC3"},{"bufferView":2,"componentType":5126,"count":1176,"max":[0.9765625,0.9765625],"min":[0,0],"type":"VEC2"},{"bufferView":3,"componentType":5123,"count":1176,"max":[0,12,0,0],"min":[0,0,0,0],"type":"VEC4"},{"bufferView":4,"componentType":5126,"count":1176,"max":[0,1,0,0],"min":[0,1,0,0],"type":"VEC4"},{"bufferView":5,"componentType":5123,"count":1764,"max":[1175],"min":[0],"type":"SCALAR"},{"bufferView":6,"componentType":5126,"count":13,"max":[1,0,0,0,0,1,0,0,0,0,1,0,0.6867961883544922,0.8399682641029358,0,1],"min":[1,0,0,0,0,1,0,0,0,0,1,0,-1.0604851245880127,-1.7435486316680908,-3.998018980026245,1],"type":"MAT4"}],"materials":[{"pbrMetallicRoughness":{"metallicFactor":0,"roughnessFactor":1,"baseColorTexture":{"index":0}},"alphaMode":"MASK","alphaCutoff":0.05,"doubleSided":true}],"textures":[{"sampler":0,"source":0}],"samplers":[{"magFilter":9728,"minFilter":9728,"wrapS":33071,"wrapT":33071}],"images":[{"mimeType":"image/png","uri":"data:image/png;base64,"}],"meshes":[{"primitives":[{"mode":4,"attributes":{"POSITION":0,"NORMAL":1,"TEXCOORD_0":2,"JOINTS_0":3,"WEIGHTS_0":4},"indices":5,"material":0}]}],"skins":[{"inverseBindMatrices":6,"joints":[12,2,0,1,7,3,4,5,6,11,8,9,10],"skeleton":12}]}