{"asset":{"version":"2.0","generator":"Blockbench 4.9.4 glTF exporter"},"scenes":[{"nodes":[29],"name":"blockbench_export"}],"scene":0,"nodes":[{"translation":[2.7755575615628914e-17,0.8623263617791719,-0.07364779138686162],"name":"head"},{"translation":[0.4843749999999999,-1.1875,0.125],"name":"Right_hand"},{"translation":[1.1102230246251565e-16,-0.21875,0.125],"name":"Right_lower_arm","children":[1]},{"translation":[0,-0.078125,-0.125],"name":"Right_elbow","children":[2]},{"translation":[-0.046875,-0.390625,0.0625],"name":"Right_upper_arm","children":[3]},{"translation":[0,-0.1875,-0.1875],"name":"Right_Shoulder","children":[4]},{"translation":[-0.4375,0.5,-0.0625],"name":"Right_arm","children":[5]},{"translation":[0.44073172663834576,0.7862807229844533,-0.005957382047834914],"name":"MainDagger2"},{"translation":[-0.7392225899575187,-1.3792257719766798,-0.08924101026158068],"name":"Left_hand","children":[7]},{"translation":[0.11422258995751866,-0.12077422802332016,0.21424101026158068],"name":"Left_lower_arm","children":[8]},{"translation":[0.125,-0.5,-0.125],"name":"Left_elbow","children":[9]},{"translation":[0.0625,0.125,0],"name":"Left_upper_arm","children":[10]},{"translation":[0,-0.1875,0],"name":"Left_Shoulder","children":[11]},{"translation":[0.4375,0.5,-0.0625],"name":"Left_arm","children":[12]},{"translation":[0,1.5625,0.0625],"name":"torso","children":[0,6,13]},{"name":"left_foot"},{"translation":[-0.21875,-0.875,0],"name":"left_lower_leg","children":[15]},{"translation":[0.03125,-0.3125,0],"name":"left_knee","children":[16]},{"translation":[-0.0625,-0.125,0],"name":"left_thigh","children":[17]},{"name":"Left_robe","children":[18]},{"translation":[0.25,1.3125,0],"name":"left_leg","children":[19]},{"translation":[-0.21875,-0.40625,0],"name":"right_foot"},{"translation":[0.4375,-0.09375,0],"name":"right_lower_leg","children":[21]},{"translation":[-0.09375,-0.3125,0],"name":"right_knee","children":[22]},{"translation":[-0.125,1.1875,0],"name":"right_thigh","children":[23]},{"translation":[0.1875,-1.4375,0],"name":"Right_robe","children":[24]},{"translation":[-0.1875,1.4375,0],"name":"right_leg","children":[25]},{"translation":[0,-0.375,0],"name":"waist","children":[20,26]},{"name":"Body","children":[14,27]},{"translation":[0,0.375,0],"name":"Body","mesh":0,"children":[28],"skin":0}],"bufferViews":[{"buffer":0,"byteOffset":0,"byteLength":50448,"target":34962,"byteStride":12},{"buffer":0,"byteOffset":50448,"byteLength":50448,"target":34962,"byteStride":12},{"buffer":0,"byteOffset":100896,"byteLength":33632,"target":34962,"byteStride":8},{"buffer":0,"byteOffset":134528,"byteLength":33632,"target":34962,"byteStride":8},{"buffer":0,"byteOffset":168160,"byteLength":67264,"target":34962,"byteStride":16},{"buffer":0,"byteOffset":235424,"byteLength":12600,"target":34963},{"buffer":0,"byteOffset":248024,"byteLength":1856},{"buffer":0,"byteOffset":249880,"byteLength":4},{"buffer":0,"byteOffset":249884,"byteLength":16},{"buffer":0,"byteOffset":249900,"byteLength":4},{"buffer":0,"byteOffset":249904,"byteLength":12},{"buffer":0,"byteOffset":249916,"byteLength":4},{"buffer":0,"byteOffset":249920,"byteLength":16},{"buffer":0,"byteOffset":249936,"byteLength":4},{"buffer":0,"byteOffset":249940,"byteLength":16},{"buffer":0,"byteOffset":249956,"byteLength":4},{"buffer":0,"byteOffset":249960,"byteLength":16},{"buffer":0,"byteOffset":249976,"byteLength":4},{"buffer":0,"byteOffset":249980,"byteLength":16},{"buffer":0,"byteOffset":249996,"byteLength":4},{"buffer":0,"byteOffset":250000,"byteLength":16},{"buffer":0,"byteOffset":250016,"byteLength":4},{"buffer":0,"byteOffset":250020,"byteLength":16},{"buffer":0,"byteOffset":250036,"byteLength":8},{"buffer":0,"byteOffset":250044,"byteLength":32},{"buffer":0,"byteOffset":250076,"byteLength":8},{"buffer":0,"byteOffset":250084,"byteLength":24},{"buffer":0,"byteOffset":250108,"byteLength":20},{"buffer":0,"byteOffset":250128,"byteLength":80},{"buffer":0,"byteOffset":250208,"byteLength":4},{"buffer":0,"byteOffset":250212,"byteLength":16},{"buffer":0,"byteOffset":250228,"byteLength":12},{"buffer":0,"byteOffset":250240,"byteLength":48},{"buffer":0,"byteOffset":250288,"byteLength":8},{"buffer":0,"byteOffset":250296,"byteLength":24},{"buffer":0,"byteOffset":250320,"byteLength":8},{"buffer":0,"byteOffset":250328,"byteLength":32},{"buffer":0,"byteOffset":250360,"byteLength":12},{"buffer":0,"byteOffset":250372,"byteLength":48},{"buffer":0,"byteOffset":250420,"byteLength":4},{"buffer":0,"byteOffset":250424,"byteLength":16},{"buffer":0,"byteOffset":250440,"byteLength":8},{"buffer":0,"byteOffset":250448,"byteLength":32},{"buffer":0,"byteOffset":250480,"byteLength":8},{"buffer":0,"byteOffset":250488,"byteLength":32},{"buffer":0,"byteOffset":250520,"byteLength":12},{"buffer":0,"byteOffset":250532,"byteLength":48},{"buffer":0,"byteOffset":250580,"byteLength":8},{"buffer":0,"byteOffset":250588,"byteLength":24},{"buffer":0,"byteOffset":250612,"byteLength":16},{"buffer":0,"byteOffset":250628,"byteLength":64},{"buffer":0,"byteOffset":250692,"byteLength":8},{"buffer":0,"byteOffset":250700,"byteLength":32},{"buffer":0,"byteOffset":250732,"byteLength":8},{"buffer":0,"byteOffset":250740,"byteLength":24},{"buffer":0,"byteOffset":250764,"byteLength":8},{"buffer":0,"byteOffset":250772,"byteLength":32},{"buffer":0,"byteOffset":250804,"byteLength":12},{"buffer":0,"byteOffset":250816,"byteLength":48},{"buffer":0,"byteOffset":250864,"byteLength":12},{"buffer":0,"byteOffset":250876,"byteLength":36},{"buffer":0,"byteOffset":250912,"byteLength":12},{"buffer":0,"byteOffset":250924,"byteLength":48},{"buffer":0,"byteOffset":250972,"byteLength":8},{"buffer":0,"byteOffset":250980,"byteLength":32},{"buffer":0,"byteOffset":251012,"byteLength":8},{"buffer":0,"byteOffset":251020,"byteLength":24},{"buffer":0,"byteOffset":251044,"byteLength":8},{"buffer":0,"byteOffset":251052,"byteLength":32},{"buffer":0,"byteOffset":251084,"byteLength":8},{"buffer":0,"byteOffset":251092,"byteLength":24},{"buffer":0,"byteOffset":251116,"byteLength":8},{"buffer":0,"byteOffset":251124,"byteLength":32},{"buffer":0,"byteOffset":251156,"byteLength":8},{"buffer":0,"byteOffset":251164,"byteLength":24},{"buffer":0,"byteOffset":251188,"byteLength":16},{"buffer":0,"byteOffset":251204,"byteLength":64},{"buffer":0,"byteOffset":251268,"byteLength":12},{"buffer":0,"byteOffset":251280,"byteLength":36},{"buffer":0,"byteOffset":251316,"byteLength":8},{"buffer":0,"byteOffset":251324,"byteLength":32},{"buffer":0,"byteOffset":251356,"byteLength":8},{"buffer":0,"byteOffset":251364,"byteLength":24}],"buffers":[{"byteLength":251388,"uri":"data:application/octet-stream;base64,"}],"accessors":[{"bufferView":0,"componentType":5126,"count":4204,"max":[0.7449202537536621,3.0727367401123047,0.8861160278320312],"min":[-0.7449202537536621,-0.3828125,-0.5522992610931396],"type":"VEC3"},{"bufferView":1,"componentType":5126,"count":4204,"max":[1,1,1],"min":[-1,-1,-1],"type":"VEC3"},{"bufferView":2,"componentType":5126,"count":4204,"max":[0.3759765625,0.408203125],"min":[0,0],"type":"VEC2"},{"bufferView":3,"componentType":5123,"count":4204,"max":[0,28,0,0],"min":[0,1,0,0],"type":"VEC4"},{"bufferView":4,"componentType":5126,"count":4204,"max":[0,1,0,0],"min":[0,1,0,0],"type":"VEC4"},{"bufferView":5,"componentType":5123,"count":6300,"max":[4203],"min":[0],"type":"SCALAR"},{"bufferView":6,"componentType":5126,"count":29,"max":[1,0,0,0,0,1,0,0,0,0,1,0,0.484375,0.375,0.25,1],"min":[1,0,0,0,0,1,0,0,0,0,1,0,-0.7392225861549377,-2.4248263835906982,-0.08924101293087006,1],"type":"MAT4"},{"bufferView":7,"componentType":5126,"count":1,"max":[0],"min":[0],"type":"SCALAR"},{"bufferView":8,"componentType":5126,"count":1,"max":[0.10886687785387039,0,0,0.9940563440322876],"min":[0.10886687785387039,0,0,0.9940563440322876],"type":"VEC4"},{"bufferView":9,"componentType":5126,"count":1,"max":[0],"min":[0],"type":"SCALAR"},{"bufferView":10,"componentType":5126,"count":1,"max":[2.7755575615628914e-17,0.8623263835906982,-0.011147791519761086],"min":[2.7755575615628914e-17,0.8623263835906982,-0.011147791519761086],"type":"VEC3"},{"bufferView":11,"componentType":5126,"count":1,"max":[0],"min":[0],"type":"SCALAR"},{"bufferView":12,"componentType":5126,"count":1,"max":[-0.04311172291636467,-0.006635528989136219,0.15197859704494476,0.9874207973480225],"min":[-0.04311172291636467,-0.006635528989136219,0.15197859704494476,0.9874207973480225],"type":"VEC4"},{"bufferView":13,"componentType":5126,"count":1,"max":[0],"min":[0],"type":"SCALAR"},{"bufferView":14,"componentType":5126,"count":1,"max":[-0.5735764503479004,0,0,0.8191520571708679],"min":[-0.5735764503479004,0,0,0.8191520571708679],"type":"VEC4"},{"bufferView":15,"componentType":5126,"count":1,"max":[0],"min":[0],"type":"SCALAR"},{"bufferView":16,"componentType":5126,"count":1,"max":[-0.15212339162826538,0,0,0.9883615374565125],"min":[-0.15212339162826538,0,0,0.9883615374565125],"type":"VEC4"},{"bufferView":17,"componentType":5126,"count":1,"max":[0],"min":[0],"type":"SCALAR"},{"bufferView":18,"componentType":5126,"count":1,"max":[0.02181488461792469,0,0,0.9997619986534119],"min":[0.02181488461792469,0,0,0.9997619986534119],"type":"VEC4"},{"bufferView":19,"componentType":5126,"count":1,"max":[0],"min":[0],"type":"SCALAR"},{"bufferView":20,"componentType":5126,"count":1,"max":[0.258819043636322,0,0,0.9659258127212524],"min":[0.258819043636322,0,0,0.9659258127212524],"type":"VEC4"},{"bufferView":21,"componentType":5126,"count":1,"max":[0],"min":[0],"type":"SCALAR"},{"bufferView":22,"componentType":5126,"count":1,"max":[-0.1736481785774231,0,0,0.9848077297210693],"min":[-0.1736481785774231,0,0,0.9848077297210693],"type":"VEC4"},{"bufferView":23,"componentType":5126,"count":2,"max":[1.75],"min":[0],"type":"SCALAR"},{"bufferView":24,"componentType":5126,"count":2,"max":[0.04361938685178757,0,0,0.9990482330322266],"min":[0.04361938685178757,0,0,0.9990482330322266],"type":"VEC4"},{"bufferView":25,"componentType":5126,"count":2,"max":[1.75],"min":[0],"type":"SCALAR"},{"bufferView":26,"componentType":5126,"count":2,"max":[-0.0031250000465661287,1.609375,0.125],"min":[-0.0031250000465661287,1.609375,0.125],"type":"VEC3"},{"bufferView":27,"componentType":5126,"count":5,"max":[1.75],"min":[0],"type":"SCALAR"},{"bufferView":28,"componentType":5126,"count":5,"max":[0.02181488461792469,0.04360900819301605,0.0019012924749404192,0.9995241165161133],"min":[-0.02172670140862465,-0.04360900819301605,-0.002376729156821966,0.9988104701042175],"type":"VEC4"},{"bufferView":29,"componentType":5126,"count":1,"max":[0],"min":[0],"type":"SCALAR"},{"bufferView":30,"componentType":5126,"count":1,"max":[0.10884096473455429,-0.021685224026441574,0.00237491843290627,0.9938197731971741],"min":[0.10884096473455429,-0.021685224026441574,0.00237491843290627,0.9938197731971741],"type":"VEC4"},{"bufferView":31,"componentType":5126,"count":3,"max":[1.75],"min":[0],"type":"SCALAR"},{"bufferView":32,"componentType":5126,"count":3,"max":[-0.1950438916683197,-0.020331645384430885,-0.007012165151536465,0.9805518984794617],"min":[-0.23762932419776917,-0.020657172426581383,-0.007906544022262096,0.9711109399795532],"type":"VEC4"},{"bufferView":33,"componentType":5126,"count":2,"max":[1.75],"min":[1.25],"type":"SCALAR"},{"bufferView":34,"componentType":5126,"count":2,"max":[0,-0.1875,-0.1875],"min":[0,-0.1875,-0.203125],"type":"VEC3"},{"bufferView":35,"componentType":5126,"count":2,"max":[1.75],"min":[0],"type":"SCALAR"},{"bufferView":36,"componentType":5126,"count":2,"max":[-0.08715574443340302,0,0,0.9961947202682495],"min":[-0.08715574443340302,0,0,0.9961947202682495],"type":"VEC4"},{"bufferView":37,"componentType":5126,"count":3,"max":[1.75],"min":[0],"type":"SCALAR"},{"bufferView":38,"componentType":5126,"count":3,"max":[-0.258819043636322,0,0,0.9659258127212524],"min":[-0.3420201539993286,0,0,0.9396926164627075],"type":"VEC4"},{"bufferView":39,"componentType":5126,"count":1,"max":[0],"min":[0],"type":"SCALAR"},{"bufferView":40,"componentType":5126,"count":1,"max":[-0.10886687785387039,0,0,0.9940563440322876],"min":[-0.10886687785387039,0,0,0.9940563440322876],"type":"VEC4"},{"bufferView":41,"componentType":5126,"count":2,"max":[1.75],"min":[0],"type":"SCALAR"},{"bufferView":42,"componentType":5126,"count":2,"max":[-0.20230332016944885,-0.10821980983018875,0.10821980983018875,0.9672901630401611],"min":[-0.20230332016944885,-0.10821980983018875,0.10821980983018875,0.9672901630401611],"type":"VEC4"},{"bufferView":43,"componentType":5126,"count":2,"max":[1.75],"min":[0],"type":"SCALAR"},{"bufferView":44,"componentType":5126,"count":2,"max":[-0.04361938685178757,0,0,0.9990482330322266],"min":[-0.04361938685178757,0,0,0.9990482330322266],"type":"VEC4"},{"bufferView":45,"componentType":5126,"count":3,"max":[1.75],"min":[0],"type":"SCALAR"},{"bufferView":46,"componentType":5126,"count":3,"max":[-0.5907468795776367,-0.029468830674886703,-0.028760259971022606,0.805677056312561],"min":[-0.674947202205658,-0.03279479220509529,-0.03215958550572395,0.7365756034851074],"type":"VEC4"},{"bufferView":47,"componentType":5126,"count":2,"max":[1.75],"min":[0],"type":"SCALAR"},{"bufferView":48,"componentType":5126,"count":2,"max":[0.125,-0.453125,-0.125],"min":[0.125,-0.453125,-0.125],"type":"VEC3"},{"bufferView":49,"componentType":5126,"count":4,"max":[1.75],"min":[0],"type":"SCALAR"},{"bufferView":50,"componentType":5126,"count":4,"max":[0.10876325517892838,0,0.04195664823055267,0.9990482330322266],"min":[0,-0.01793498918414116,-0.04361938685178757,0.9931102395057678],"type":"VEC4"},{"bufferView":51,"componentType":5126,"count":2,"max":[1.75],"min":[0],"type":"SCALAR"},{"bufferView":52,"componentType":5126,"count":2,"max":[-0.19509032368659973,0,0,0.9807852506637573],"min":[-0.19509032368659973,0,0,0.9807852506637573],"type":"VEC4"},{"bufferView":53,"componentType":5126,"count":2,"max":[1.75],"min":[0],"type":"SCALAR"},{"bufferView":54,"componentType":5126,"count":2,"max":[0.25,1.296875,0.03125],"min":[0.25,1.296875,0.03125],"type":"VEC3"},{"bufferView":55,"componentType":5126,"count":2,"max":[1.75],"min":[0],"type":"SCALAR"},{"bufferView":56,"componentType":5126,"count":2,"max":[0.19509032368659973,0,0,0.9807852506637573],"min":[0.19509032368659973,0,0,0.9807852506637573],"type":"VEC4"},{"bufferView":57,"componentType":5126,"count":3,"max":[1.75],"min":[0],"type":"SCALAR"},{"bufferView":58,"componentType":5126,"count":3,"max":[0.02181488461792469,0,0,1],"min":[0,0,0,0.9997619986534119],"type":"VEC4"},{"bufferView":59,"componentType":5126,"count":3,"max":[1.75],"min":[0],"type":"SCALAR"},{"bufferView":60,"componentType":5126,"count":3,"max":[0,0.015625,0.015625],"min":[0,0,0],"type":"VEC3"},{"bufferView":61,"componentType":5126,"count":3,"max":[1.75],"min":[0],"type":"SCALAR"},{"bufferView":62,"componentType":5126,"count":3,"max":[0.10886687785387039,0,0,0.9978589415550232],"min":[0.06540312618017197,0,0,0.9940563440322876],"type":"VEC4"},{"bufferView":63,"componentType":5126,"count":2,"max":[1.75],"min":[0],"type":"SCALAR"},{"bufferView":64,"componentType":5126,"count":2,"max":[0.04361938685178757,0,0,0.9990482330322266],"min":[0.04361938685178757,0,0,0.9990482330322266],"type":"VEC4"},{"bufferView":65,"componentType":5126,"count":2,"max":[1.75],"min":[0],"type":"SCALAR"},{"bufferView":66,"componentType":5126,"count":2,"max":[0.1875,-1.4375,-0.15625],"min":[0.1875,-1.4375,-0.15625],"type":"VEC3"},{"bufferView":67,"componentType":5126,"count":2,"max":[1.75],"min":[0],"type":"SCALAR"},{"bufferView":68,"componentType":5126,"count":2,"max":[0.02181488461792469,0,0,0.9997619986534119],"min":[0.02181488461792469,0,0,0.9997619986534119],"type":"VEC4"},{"bufferView":69,"componentType":5126,"count":2,"max":[1.75],"min":[0],"type":"SCALAR"},{"bufferView":70,"componentType":5126,"count":2,"max":[-0.125,1.1875,0.0625],"min":[-0.125,1.1875,0.0625],"type":"VEC3"},{"bufferView":71,"componentType":5126,"count":2,"max":[1.75],"min":[0],"type":"SCALAR"},{"bufferView":72,"componentType":5126,"count":2,"max":[-0.15212339162826538,0,0,0.9883615374565125],"min":[-0.15212339162826538,0,0,0.9883615374565125],"type":"VEC4"},{"bufferView":73,"componentType":5126,"count":2,"max":[1.75],"min":[0],"type":"SCALAR"},{"bufferView":74,"componentType":5126,"count":2,"max":[-0.09375,-0.3125,0.015625],"min":[-0.09375,-0.3125,0.015625],"type":"VEC3"},{"bufferView":75,"componentType":5126,"count":4,"max":[1.75],"min":[0],"type":"SCALAR"},{"bufferView":76,"componentType":5126,"count":4,"max":[0.033591266721487045,0,0,1],"min":[0,0,0,0.9994356632232666],"type":"VEC4"},{"bufferView":77,"componentType":5126,"count":3,"max":[1.75],"min":[0],"type":"SCALAR"},{"bufferView":78,"componentType":5126,"count":3,"max":[-0.21875,-0.40625,0.046875],"min":[-0.21875,-0.40625,0],"type":"VEC3"},{"bufferView":79,"componentType":5126,"count":2,"max":[1.75],"min":[0],"type":"SCALAR"},{"bufferView":80,"componentType":5126,"count":2,"max":[1,0,0,6.123234262925839e-17],"min":[1,0,0,6.123234262925839e-17],"type":"VEC4"},{"bufferView":81,"componentType":5126,"count":2,"max":[1.75],"min":[0],"type":"SCALAR"},{"bufferView":82,"componentType":5126,"count":2,"max":[0.4407317340373993,0.7862807512283325,-0.25595739483833313],"min":[0.4407317340373993,0.7862807512283325,-0.25595739483833313],"type":"VEC3"}],"materials":[{"pbrMetallicRoughness":{"metallicFactor":0,"roughnessFactor":1,"baseColorTexture":{"index":0}},"alphaMode":"MASK","alphaCutoff":0.05,"doubleSided":true}],"textures":[{"sampler":0,"source":0}],"samplers":[{"magFilter":9728,"minFilter":9728,"wrapS":33071,"wrapT":33071}],"images":[{"mimeType":"image/png","uri":"data:image/png;base64,"}],"meshes":[{"primitives":[{"mode":4,"attributes":{"POSITION":0,"NORMAL":1,"TEXCOORD_0":2,"JOINTS_0":3,"WEIGHTS_0":4},"indices":5,"material":0}]}],"skins":[{"inverseBindMatrices":6,"joints":[28,14,0,6,5,4,3,2,1,13,12,11,10,9,8,7,27,20,19,18,17,16,15,26,25,24,23,22,21],"skeleton":28}],"animations":[{"name":"Rig","samplers":[{"input":7,"output":8,"interpolation":"LINEAR"},{"input":9,"output":10,"interpolation":"LINEAR"},{"input":11,"output":12,"interpolation":"LINEAR"},{"input":13,"output":14,"interpolation":"LINEAR"},{"input":15,"output":16,"interpolation":"LINEAR"},{"input":17,"output":18,"interpolation":"LINEAR"},{"input":19,"output":20,"interpolation":"LINEAR"},{"input":21,"output":22,"interpolation":"LINEAR"}],"channels":[{"sampler":0,"target":{"node":0,"path":"rotation"}},{"sampler":1,"target":{"node":0,"path":"translation"}},{"sampler":2,"target":{"node":13,"path":"rotation"}},{"sampler":3,"target":{"node":10,"path":"rotation"}},{"sampler":4,"target":{"node":20,"path":"rotation"}},{"sampler":5,"target":{"node":18,"path":"rotation"}},{"sampler":6,"target":{"node":17,"path":"rotation"}},{"sampler":7,"target":{"node":19,"path":"rotation"}}]},{"name":"Idle","samplers":[{"input":23,"output":24,"interpolation":"LINEAR"},{"input":25,"output":26,"interpolation":"LINEAR"},{"input":27,"output":28,"interpolation":"LINEAR"},{"input":29,"output":30,"interpolation":"LINEAR"},{"input":31,"output":32,"interpolation":"LINEAR"},{"input":33,"output":34,"interpolation":"LINEAR"},{"input":35,"output":36,"interpolation":"LINEAR"},{"input":37,"output":38,"interpolation":"LINEAR"},{"input":39,"output":40,"interpolation":"LINEAR"},{"input":41,"output":42,"interpolation":"LINEAR"},{"input":43,"output":44,"interpolation":"LINEAR"},{"input":45,"output":46,"interpolation":"LINEAR"},{"input":47,"output":48,"interpolation":"LINEAR"},{"input":49,"output":50,"interpolation":"LINEAR"},{"input":51,"output":52,"interpolation":"LINEAR"},{"input":53,"output":54,"interpolation":"LINEAR"},{"input":55,"output":56,"interpolation":"LINEAR"},{"input":57,"output":58,"interpolation":"LINEAR"},{"input":59,"output":60,"interpolation":"LINEAR"},{"input":61,"output":62,"interpolation":"LINEAR"},{"input":63,"output":64,"interpolation":"LINEAR"},{"input":65,"output":66,"interpolation":"LINEAR"},{"input":67,"output":68,"interpolation":"LINEAR"},{"input":69,"output":70,"interpolation":"LINEAR"},{"input":71,"output":72,"interpolation":"LINEAR"},{"input":73,"output":74,"interpolation":"LINEAR"},{"input":75,"output":76,"interpolation":"LINEAR"},{"input":77,"output":78,"interpolation":"LINEAR"},{"input":79,"output":80,"interpolation":"LINEAR"},{"input":81,"output":82,"interpolation":"LINEAR"}],"channels":[{"sampler":0,"target":{"node":14,"path":"rotation"}},{"sampler":1,"target":{"node":14,"path":"translation"}},{"sampler":2,"target":{"node":0,"path":"rotation"}},{"sampler":3,"target":{"node":6,"path":"rotation"}},{"sampler":4,"target":{"node":5,"path":"rotation"}},{"sampler":5,"target":{"node":5,"path":"translation"}},{"sampler":6,"target":{"node":4,"path":"rotation"}},{"sampler":7,"target":{"node":3,"path":"rotation"}},{"sampler":8,"target":{"node":13,"path":"rotation"}},{"sampler":9,"target":{"node":12,"path":"rotation"}},{"sampler":10,"target":{"node":11,"path":"rotation"}},{"sampler":11,"target":{"node":10,"path":"rotation"}},{"sampler":12,"target":{"node":10,"path":"translation"}},{"sampler":13,"target":{"node":9,"path":"rotation"}},{"sampler":14,"target":{"node":20,"path":"rotation"}},{"sampler":15,"target":{"node":20,"path":"translation"}},{"sampler":16,"target":{"node":17,"path":"rotation"}},{"sampler":17,"target":{"node":15,"path":"rotation"}},{"sampler":18,"target":{"node":15,"path":"translation"}},{"sampler":19,"target":{"node":26,"path":"rotation"}},{"sampler":20,"target":{"node":25,"path":"rotation"}},{"sampler":21,"target":{"node":25,"path":"translation"}},{"sampler":22,"target":{"node":24,"path":"rotation"}},{"sampler":23,"target":{"node":24,"path":"translation"}},{"sampler":24,"target":{"node":23,"path":"rotation"}},{"sampler":25,"target":{"node":23,"path":"translation"}},{"sampler":26,"target":{"node":21,"path":"rotation"}},{"sampler":27,"target":{"node":21,"path":"translation"}},{"sampler":28,"target":{"node":7,"path":"rotation"}},{"sampler":29,"target":{"node":7,"path":"translation"}}]}]}