{"asset":{"version":"2.0","generator":"Blockbench 4.9.4 glTF exporter"},"scenes":[{"nodes":[10],"name":"blockbench_export"}],"scene":0,"nodes":[{"translation":[0.0244248700448297,1.5631477812121264,-0.646404912446651],"name":"head"},{"translation":[-0.390785782853102,1.1923585227447717,-0.22499442666674602],"name":"left_legs"},{"translation":[0.390785782853102,1.1923585227447717,-0.22499442666674602],"name":"right_legs"},{"translation":[0,-0.21955038035567043,-0.44020410196018717],"name":"Front"},{"translation":[0,-0.4054496196443296,-0.12229589803981283],"name":"Back"},{"translation":[0,-0.18864619116814074,0.4741994207159133],"name":"See_through","children":[3,4]},{"translation":[0,2.0625,0],"name":"Wings","children":[5]},{"name":"left_face"},{"name":"right_face"},{"name":"Hornet","children":[0,1,2,6,7,8]},{"name":"Hornet","mesh":0,"children":[9],"skin":0}],"bufferViews":[{"buffer":0,"byteOffset":0,"byteLength":11472,"target":34962,"byteStride":12},{"buffer":0,"byteOffset":11472,"byteLength":11472,"target":34962,"byteStride":12},{"buffer":0,"byteOffset":22944,"byteLength":7648,"target":34962,"byteStride":8},{"buffer":0,"byteOffset":30592,"byteLength":7648,"target":34962,"byteStride":8},{"buffer":0,"byteOffset":38240,"byteLength":15296,"target":34962,"byteStride":16},{"buffer":0,"byteOffset":53536,"byteLength":2868,"target":34963},{"buffer":0,"byteOffset":56404,"byteLength":640},{"buffer":0,"byteOffset":57044,"byteLength":16},{"buffer":0,"byteOffset":57060,"byteLength":64},{"buffer":0,"byteOffset":57124,"byteLength":4},{"buffer":0,"byteOffset":57128,"byteLength":12},{"buffer":0,"byteOffset":57140,"byteLength":4},{"buffer":0,"byteOffset":57144,"byteLength":12},{"buffer":0,"byteOffset":57156,"byteLength":16},{"buffer":0,"byteOffset":57172,"byteLength":64},{"buffer":0,"byteOffset":57236,"byteLength":12},{"buffer":0,"byteOffset":57248,"byteLength":36},{"buffer":0,"byteOffset":57284,"byteLength":12},{"buffer":0,"byteOffset":57296,"byteLength":36},{"buffer":0,"byteOffset":57332,"byteLength":4},{"buffer":0,"byteOffset":57336,"byteLength":16},{"buffer":0,"byteOffset":57352,"byteLength":12},{"buffer":0,"byteOffset":57364,"byteLength":36},{"buffer":0,"byteOffset":57400,"byteLength":4},{"buffer":0,"byteOffset":57404,"byteLength":12}],"buffers":[{"byteLength":57416,"uri":"data:application/octet-stream;base64,"}],"accessors":[{"bufferView":0,"componentType":5126,"count":956,"max":[1.0259857177734375,2.5441980361938477,1.09380304813385],"min":[-1.0259857177734375,0.10310965776443481,-0.890625],"type":"VEC3"},{"bufferView":1,"componentType":5126,"count":956,"max":[1,1,1],"min":[-1,-1,-1],"type":"VEC3"},{"bufferView":2,"componentType":5126,"count":956,"max":[1,0.5],"min":[0,0],"type":"VEC2"},{"bufferView":3,"componentType":5123,"count":956,"max":[0,7,0,0],"min":[0,0,0,0],"type":"VEC4"},{"bufferView":4,"componentType":5126,"count":956,"max":[0,1,0,0],"min":[0,1,0,0],"type":"VEC4"},{"bufferView":5,"componentType":5123,"count":1434,"max":[955],"min":[0],"type":"SCALAR"},{"bufferView":6,"componentType":5126,"count":10,"max":[1,0,0,0,0,1,0,0,0,0,1,0,0.3907857835292816,0,0.6464049220085144,1],"min":[1,0,0,0,0,1,0,0,0,0,1,0,-0.3907857835292816,-2.0625,-0.47419941425323486,1],"type":"MAT4"},{"bufferView":7,"componentType":5126,"count":4,"max":[0.25],"min":[0],"type":"SCALAR"},{"bufferView":8,"componentType":5126,"count":4,"max":[0.40274667739868164,0,0,1],"min":[0,0,0,0.9153114557266235],"type":"VEC4"},{"bufferView":9,"componentType":5126,"count":1,"max":[0],"min":[0],"type":"SCALAR"},{"bufferView":10,"componentType":5126,"count":1,"max":[0,-0.40544962882995605,-0.12229590117931366],"min":[0,-0.40544962882995605,-0.12229590117931366],"type":"VEC3"},{"bufferView":11,"componentType":5126,"count":1,"max":[0],"min":[0],"type":"SCALAR"},{"bufferView":12,"componentType":5126,"count":1,"max":[1,1,1],"min":[1,1,1],"type":"VEC3"},{"bufferView":13,"componentType":5126,"count":4,"max":[0.25],"min":[0],"type":"SCALAR"},{"bufferView":14,"componentType":5126,"count":4,"max":[0.3214394748210907,0,0,1],"min":[0,0,0,0.9469301104545593],"type":"VEC4"},{"bufferView":15,"componentType":5126,"count":3,"max":[0.1666666716337204],"min":[0],"type":"SCALAR"},{"bufferView":16,"componentType":5126,"count":3,"max":[0,-0.21955038607120514,-0.44020411372184753],"min":[0,-0.21955038607120514,-0.44020411372184753],"type":"VEC3"},{"bufferView":17,"componentType":5126,"count":3,"max":[0.1666666716337204],"min":[0],"type":"SCALAR"},{"bufferView":18,"componentType":5126,"count":3,"max":[1,1,1],"min":[1,1,1],"type":"VEC3"},{"bufferView":19,"componentType":5126,"count":1,"max":[0],"min":[0],"type":"SCALAR"},{"bufferView":20,"componentType":5126,"count":1,"max":[0,0,0,1],"min":[0,0,0,1],"type":"VEC4"},{"bufferView":21,"componentType":5126,"count":3,"max":[0.25],"min":[0],"type":"SCALAR"},{"bufferView":22,"componentType":5126,"count":3,"max":[0.024424869567155838,1.563147783279419,-0.6464049220085144],"min":[0.024424869567155838,1.469397783279419,-0.6464049220085144],"type":"VEC3"},{"bufferView":23,"componentType":5126,"count":1,"max":[0],"min":[0],"type":"SCALAR"},{"bufferView":24,"componentType":5126,"count":1,"max":[1,1,1],"min":[1,1,1],"type":"VEC3"}],"materials":[{"pbrMetallicRoughness":{"metallicFactor":0,"roughnessFactor":1,"baseColorTexture":{"index":0}},"alphaMode":"MASK","alphaCutoff":0.05,"doubleSided":true}],"textures":[{"sampler":0,"source":0}],"samplers":[{"magFilter":9728,"minFilter":9728,"wrapS":33071,"wrapT":33071}],"images":[{"mimeType":"image/png","uri":"data:image/png;base64,"}],"meshes":[{"primitives":[{"mode":4,"attributes":{"POSITION":0,"NORMAL":1,"TEXCOORD_0":2,"JOINTS_0":3,"WEIGHTS_0":4},"indices":5,"material":0}]}],"skins":[{"inverseBindMatrices":6,"joints":[9,0,1,2,6,5,3,4,7,8],"skeleton":9}],"animations":[{"name":"Hover","samplers":[{"input":7,"output":8,"interpolation":"LINEAR"},{"input":9,"output":10,"interpolation":"LINEAR"},{"input":11,"output":12,"interpolation":"LINEAR"},{"input":13,"output":14,"interpolation":"LINEAR"},{"input":15,"output":16,"interpolation":"LINEAR"},{"input":17,"output":18,"interpolation":"LINEAR"},{"input":19,"output":20,"interpolation":"LINEAR"},{"input":21,"output":22,"interpolation":"LINEAR"},{"input":23,"output":24,"interpolation":"LINEAR"}],"channels":[{"sampler":0,"target":{"node":4,"path":"rotation"}},{"sampler":1,"target":{"node":4,"path":"translation"}},{"sampler":2,"target":{"node":4,"path":"scale"}},{"sampler":3,"target":{"node":3,"path":"rotation"}},{"sampler":4,"target":{"node":3,"path":"translation"}},{"sampler":5,"target":{"node":3,"path":"scale"}},{"sampler":6,"target":{"node":0,"path":"rotation"}},{"sampler":7,"target":{"node":0,"path":"translation"}},{"sampler":8,"target":{"node":0,"path":"scale"}}]}]}